<svg version="1.1" id="Layer_1" xmlns="http://www.w3.org/2000/svg" x="0" y="0" viewBox="0 0 600 400" xml:space="preserve"><style>.st0{fill:#b9b8b9}.st1{opacity:.6;fill:#fff}.st2{fill:#5a595c}.st4{fill:#fff}.st5,.st6{opacity:.8;fill:#fff}.st6{opacity:.2}.st7{fill:none}.st8{fill:#fafafa}.st9{fill:#f1f1f1}.st10{opacity:.7;fill:#fff}.st11{opacity:.5}.st12{fill:#69d3ed}.st13{opacity:.4}.st14{opacity:.2}.st15{opacity:.5;fill:#fff}.st16{opacity:.3}.st18{opacity:.1}.st19{fill:#f9c316}.st20{opacity:.5;fill:#fafafa}.st21,.st22{fill:none;stroke:#f9c316;stroke-width:.4936;stroke-miterlimit:10}.st22{opacity:.2;stroke:#000;stroke-width:.9873;stroke-linecap:round;stroke-linejoin:round}.st23{opacity:.2;fill:#fafafa}.st24{fill:none;stroke:#fafafa;stroke-width:.4936;stroke-linecap:round;stroke-linejoin:round}.st26{fill:#ebeaeb}.st28{opacity:.9;fill:#fff}.st29{fill:#2aa7c0}.st31,.st32{opacity:.4;fill:#fff}.st32{opacity:.3}.st33{opacity:.4;fill:#f9c316}.st34{opacity:.2;enable-background:new}.st35{fill:#519fb7}.st36{fill:#4fa3bb}</style><path class="st0" d="M177.11 83.68h91.47v78.92h-91.47z"/><path class="st1" d="M177.11 83.68h91.47v78.92h-91.47z"/><path class="st0" d="M177.11 68.91h91.47v14.77h-91.47z"/><path class="st2" d="M191.07 64.04c0-1.35-1.09-2.44-2.44-2.44-1.35 0-2.44 1.09-2.44 2.44v9.75c0 1.35 1.09 2.44 2.44 2.44 1.35 0 2.44-1.09 2.44-2.44v-9.75zM208.67 64.04c0-1.35-1.09-2.44-2.44-2.44-1.35 0-2.44 1.09-2.44 2.44v9.75c0 1.35 1.09 2.44 2.44 2.44 1.35 0 2.44-1.09 2.44-2.44v-9.75zM226.28 64.04c0-1.35-1.09-2.44-2.44-2.44-1.35 0-2.44 1.09-2.44 2.44v9.75c0 1.35 1.09 2.44 2.44 2.44 1.35 0 2.44-1.09 2.44-2.44v-9.75zM243.89 64.04c0-1.35-1.09-2.44-2.44-2.44-1.35 0-2.44 1.09-2.44 2.44v9.75c0 1.35 1.09 2.44 2.44 2.44 1.35 0 2.44-1.09 2.44-2.44v-9.75zM261.49 64.04c0-1.35-1.09-2.44-2.44-2.44-1.35 0-2.44 1.09-2.44 2.44v9.75c0 1.35 1.09 2.44 2.44 2.44 1.35 0 2.44-1.09 2.44-2.44v-9.75z"/><g opacity=".7"><path class="st4" d="M191.07 64.04c0-1.35-1.09-2.44-2.44-2.44-1.35 0-2.44 1.09-2.44 2.44v9.75c0 1.35 1.09 2.44 2.44 2.44 1.35 0 2.44-1.09 2.44-2.44v-9.75zM208.67 64.04c0-1.35-1.09-2.44-2.44-2.44-1.35 0-2.44 1.09-2.44 2.44v9.75c0 1.35 1.09 2.44 2.44 2.44 1.35 0 2.44-1.09 2.44-2.44v-9.75zM226.28 64.04c0-1.35-1.09-2.44-2.44-2.44-1.35 0-2.44 1.09-2.44 2.44v9.75c0 1.35 1.09 2.44 2.44 2.44 1.35 0 2.44-1.09 2.44-2.44v-9.75zM243.89 64.04c0-1.35-1.09-2.44-2.44-2.44-1.35 0-2.44 1.09-2.44 2.44v9.75c0 1.35 1.09 2.44 2.44 2.44 1.35 0 2.44-1.09 2.44-2.44v-9.75zM261.49 64.04c0-1.35-1.09-2.44-2.44-2.44-1.35 0-2.44 1.09-2.44 2.44v9.75c0 1.35 1.09 2.44 2.44 2.44 1.35 0 2.44-1.09 2.44-2.44v-9.75z"/></g><path class="st0" d="M271.55 160.39h-91.47l-2.68-76.71h91.47z"/><path class="st5" d="M271.55 160.39h-91.47l-2.68-76.71h91.47z"/><path class="st2" d="M248.15 102.52h-45.29l-.47-13.5h45.28z"/><path class="st1" d="M248.15 102.52h-45.29l-.47-13.5h45.28z"/><path class="st4" d="M195.85 119.96h-12.09l-.43-12.09h12.1zM213.01 119.96h-12.1l-.42-12.09h12.09z"/><path class="st2" d="M196.42 136.27h-12.09l-.43-12.09H196zM196.99 152.58H184.9l-.43-12.09h12.1zM213.58 136.27h-12.1l-.42-12.09h12.09z"/><path class="st6" d="M213.58 136.27h-12.1l-.42-12.09h12.09z"/><path class="st2" d="M230.73 136.27h-12.09l-.42-12.09h12.09z"/><path class="st6" d="M230.73 136.27h-12.09l-.42-12.09h12.09z"/><g><path class="st2" d="M247.89 136.27H235.8l-.43-12.09h12.1z"/><path class="st6" d="M247.89 136.27H235.8l-.43-12.09h12.1z"/></g><g><path class="st2" d="M265.05 136.27h-12.1l-.42-12.09h12.09z"/><path class="st6" d="M265.05 136.27h-12.1l-.42-12.09h12.09z"/></g><g><path class="st2" d="M214.15 152.58h-12.1l-.42-12.09h12.09z"/><path class="st6" d="M214.15 152.58h-12.1l-.42-12.09h12.09z"/></g><g><path class="st2" d="M231.3 152.58h-12.09l-.42-12.09h12.09z"/><path class="st6" d="M231.3 152.58h-12.09l-.42-12.09h12.09z"/></g><g><path class="st2" d="M248.46 152.58h-12.1l-.42-12.09h12.1z"/><path class="st6" d="M248.46 152.58h-12.1l-.42-12.09h12.1z"/></g><g><path class="st7" d="M230.16 119.96h-12.09l-.42-12.09h12.09z"/><path class="st4" d="M230.16 119.96h-12.09l-.42-12.09h12.09z"/><path class="st6" d="M230.16 119.96h-12.09l-.42-12.09h12.09z"/></g><g><path class="st7" d="M247.32 119.96h-12.09l-.43-12.09 12.1-.01z"/><path class="st2" d="M247.32 119.96h-12.09l-.43-12.09 12.1-.01z"/><path class="st6" d="M247.32 119.96h-12.09l-.43-12.09 12.1-.01z"/></g><g><path class="st7" d="M264.48 119.96h-12.1l-.42-12.09 12.09-.01z"/><path class="st2" d="M264.48 119.96h-12.1l-.42-12.09 12.09-.01z"/><path class="st6" d="M264.48 119.96h-12.1l-.42-12.09 12.09-.01z"/></g><path class="st4" d="M265.62 152.58h-12.1l-.42-12.09h12.09z"/><g><path class="st8" d="M106.81 148.72c-10.46 9.57-25.27-2.32-35.73 7.26-1.35-6.62-2.69-13.25-4.04-19.87 10.46-9.57 25.27 2.32 35.73-7.26 1.35 6.62 2.69 13.24 4.04 19.87z"/><path class="st9" d="M104.74 146.76c-.92-4.54-1.84-9.08-2.77-13.62-.76.55-1.54.2-1.71-.64-9.2 5.07-20.85-1.91-30.05 3.16.17.84-.33 1.86-1.1 2.41.92 4.54 1.84 9.08 2.77 13.62.76-.55 1.54-.2 1.71.64 9.2-5.07 20.85 1.91 30.05-3.16-.17-.85.34-1.87 1.1-2.41z"/><path class="st4" d="M85.78 141.19c.03.12.1.23.21.32.12.09.28.17.48.24-.07-.35-.14-.71-.22-1.06-.19.03-.33.08-.4.17-.08.09-.1.2-.07.33zM87.52 143.11l.21 1.03c.18-.02.31-.07.39-.16.08-.08.1-.18.08-.31a.549.549 0 00-.21-.32c-.12-.08-.27-.16-.47-.24z"/><path class="st4" d="M85.79 136.84c-3.27-.34-5.38 2.1-4.75 5.19.62 3.06 3.74 5.61 7.01 5.95 3.27.34 5.38-2.1 4.75-5.19-.61-3.06-3.73-5.62-7.01-5.95zm3.4 7.87c-.26.26-.68.41-1.26.42.06.28.11.56.17.84-.26-.02-.53-.05-.79-.07-.06-.27-.11-.54-.17-.81a5.97 5.97 0 01-1.16-.29c-.38-.14-.69-.3-.94-.47.08-.29.17-.58.25-.88.23.16.49.29.78.41.29.12.58.2.87.25-.08-.42-.17-.83-.25-1.25-.39-.12-.73-.24-1.01-.37s-.53-.3-.74-.51c-.22-.22-.36-.49-.42-.82-.08-.41 0-.76.26-1.03s.68-.41 1.27-.42c-.06-.28-.11-.55-.17-.83.26.02.53.05.79.07.06.27.11.54.17.81.66.11 1.23.31 1.7.6l-.21.89c-.44-.25-.87-.41-1.29-.5.09.42.17.85.26 1.27.39.11.72.23.99.36.28.12.52.29.74.51.21.22.36.49.42.82.08.39 0 .73-.26 1z"/><g><path class="st8" d="M108.95 144.88c-10.46 9.57-25.27-2.32-35.73 7.26-1.35-6.62-2.69-13.25-4.04-19.87 10.46-9.57 25.27 2.32 35.73-7.26 1.35 6.62 2.69 13.25 4.04 19.87z"/><path class="st9" d="M106.88 142.92c-.92-4.54-1.84-9.08-2.77-13.62-.76.55-1.54.2-1.71-.64-9.2 5.07-20.85-1.91-30.05 3.16.17.84-.33 1.86-1.1 2.41.92 4.54 1.84 9.08 2.77 13.62.76-.55 1.54-.2 1.71.64 9.2-5.07 20.85 1.91 30.05-3.16-.17-.85.33-1.87 1.1-2.41z"/><path class="st4" d="M87.91 137.35c.03.12.1.23.21.32.12.09.28.17.48.24-.07-.35-.14-.71-.22-1.06-.19.03-.33.08-.4.17-.07.09-.09.2-.07.33zM89.66 139.27l.21 1.03c.18-.02.31-.07.39-.16.08-.08.1-.18.08-.31a.549.549 0 00-.21-.32 2.9 2.9 0 00-.47-.24z"/><path class="st4" d="M87.93 133c-3.27-.34-5.38 2.1-4.75 5.19.62 3.06 3.74 5.61 7.01 5.95 3.27.34 5.38-2.1 4.75-5.19-.62-3.06-3.74-5.61-7.01-5.95zm3.4 7.87c-.26.26-.68.41-1.26.42.06.28.11.56.17.84-.26-.02-.53-.05-.79-.07-.06-.27-.11-.54-.17-.81-.4-.06-.78-.15-1.16-.29-.38-.14-.69-.3-.94-.47.08-.29.17-.58.25-.88.23.16.49.29.78.41.29.12.58.2.87.25-.08-.42-.17-.83-.25-1.25-.39-.12-.73-.24-1.01-.37s-.53-.3-.74-.51c-.22-.22-.36-.49-.42-.82-.08-.41 0-.76.26-1.03s.68-.41 1.27-.42c-.06-.28-.11-.55-.17-.83.26.02.53.05.79.07.06.27.11.54.17.81.66.11 1.23.31 1.7.6l-.21.89c-.44-.25-.87-.41-1.29-.5.09.42.17.85.26 1.27.39.11.72.23.99.36.28.12.52.29.74.51.21.22.36.49.42.82.08.39-.01.73-.26 1z"/></g></g><g><path class="st9" d="M264.08 215.35h19.43V333.8h-19.43zM297.18 215.35h19.43V333.8h-19.43zM199.32 255.74h19.43v78.06h-19.43zM231.7 236.24h19.43v97.56H231.7zM361.22 255.74h19.43v78.06h-19.43zM523.12 134.58h19.43v199.23h-19.43zM393.6 215.35h19.43V333.8H393.6zM490.74 174.97h19.43v158.84h-19.43zM458.36 195.85h19.43V333.8h-19.43zM425.98 236.24h19.43v97.56h-19.43zM328.68 174.97h19.43v158.84h-19.43z"/></g><g><path class="st8" d="M489.89 102.97c-13.41 12.27-32.4-2.97-45.8 9.3-1.72-8.49-3.45-16.98-5.17-25.48 13.41-12.27 32.4 2.97 45.8-9.3 1.73 8.5 3.45 16.99 5.17 25.48z"/><path class="st9" d="M487.24 100.45c-1.18-5.82-2.36-11.64-3.55-17.46-.98.7-1.98.26-2.2-.82-11.8 6.5-26.73-2.45-38.53 4.05.22 1.08-.43 2.39-1.41 3.09 1.18 5.82 2.36 11.64 3.55 17.46.98-.7 1.98-.26 2.2.82 11.8-6.5 26.73 2.45 38.53-4.05-.21-1.08.43-2.38 1.41-3.09z"/><path class="st4" d="M462.93 93.32c.03.16.12.3.27.41.15.11.35.22.61.31-.09-.45-.18-.91-.28-1.36-.25.03-.42.11-.51.22-.09.11-.12.25-.09.42zM465.17 95.78l.27 1.32c.23-.03.4-.1.5-.2.1-.1.13-.24.1-.4a.652.652 0 00-.27-.41c-.15-.11-.35-.21-.6-.31z"/><path class="st4" d="M462.96 87.74c-4.2-.43-6.89 2.69-6.09 6.66.8 3.92 4.79 7.2 8.99 7.63 4.2.43 6.89-2.69 6.09-6.66-.8-3.92-4.8-7.2-8.99-7.63zm4.35 10.09c-.33.34-.87.52-1.62.54.07.36.15.72.22 1.07l-1.02-.09c-.07-.35-.14-.7-.21-1.04-.51-.07-1-.2-1.48-.38s-.88-.38-1.2-.61c.11-.37.21-.75.32-1.12.29.2.63.38.99.53.37.15.74.26 1.11.33-.11-.53-.22-1.07-.32-1.6-.5-.15-.93-.31-1.29-.47-.36-.16-.68-.38-.95-.66a1.96 1.96 0 01-.54-1.06c-.11-.53 0-.97.34-1.31.33-.35.88-.53 1.63-.54-.07-.35-.14-.71-.22-1.06l1.02.09c.07.35.14.7.21 1.04.85.14 1.57.39 2.18.76l-.27 1.14c-.56-.32-1.12-.53-1.66-.64l.33 1.63c.49.15.92.3 1.27.46.35.16.67.38.95.65.28.28.46.63.54 1.05.11.51 0 .95-.33 1.29z"/><g><path class="st8" d="M492.63 98.05c-13.41 12.27-32.4-2.97-45.8 9.3-1.72-8.49-3.45-16.98-5.17-25.48 13.41-12.27 32.4 2.97 45.8-9.3 1.73 8.5 3.45 16.99 5.17 25.48z"/><path class="st9" d="M489.98 95.53c-1.18-5.82-2.36-11.64-3.55-17.46-.98.7-1.98.26-2.2-.82-11.8 6.5-26.73-2.45-38.53 4.05.22 1.08-.43 2.39-1.41 3.09 1.18 5.82 2.36 11.64 3.55 17.46.98-.7 1.98-.26 2.2.82 11.8-6.5 26.73 2.45 38.53-4.05-.21-1.08.43-2.38 1.41-3.09z"/><path class="st4" d="M465.67 88.4c.03.16.12.3.27.41.15.11.35.22.61.31-.09-.45-.18-.91-.28-1.36-.25.03-.42.11-.51.22-.09.11-.12.25-.09.42zM467.91 90.86l.27 1.32c.23-.03.4-.1.5-.2.1-.1.13-.24.1-.4a.652.652 0 00-.27-.41c-.15-.11-.35-.21-.6-.31z"/><path class="st4" d="M465.69 82.82c-4.2-.43-6.89 2.69-6.09 6.66.8 3.92 4.79 7.2 8.99 7.63 4.2.43 6.89-2.69 6.09-6.66-.79-3.92-4.79-7.2-8.99-7.63zm4.36 10.09c-.33.34-.87.52-1.62.54.07.36.15.72.22 1.07l-1.02-.09c-.07-.35-.14-.7-.21-1.04-.51-.07-1-.2-1.48-.38s-.88-.38-1.2-.61c.11-.37.21-.75.32-1.12.29.2.63.38.99.53.37.15.74.26 1.11.33-.11-.53-.22-1.07-.32-1.6-.5-.15-.93-.31-1.29-.47-.36-.16-.68-.38-.95-.66a1.96 1.96 0 01-.54-1.06c-.11-.53 0-.97.34-1.31.33-.35.88-.53 1.63-.54-.07-.35-.14-.71-.22-1.06l1.02.09c.07.35.14.7.21 1.04.85.14 1.57.39 2.18.76l-.27 1.14c-.56-.32-1.12-.53-1.66-.64l.33 1.63c.49.15.92.3 1.27.46.35.16.67.38.95.65.28.28.46.63.54 1.05.11.51 0 .95-.33 1.29z"/></g></g><g><path class="st8" d="M342.03 72.48c-18.68 6.79-31.49-16.56-50.16-9.77l5.43-27.9c18.68-6.79 31.49 16.56 50.16 9.77l-5.43 27.9z"/><path class="st9" d="M340.4 68.83l3.72-19.12c-1.28.3-2.11-.57-1.88-1.74-14.64 1.63-25.98-13.66-40.61-12.03-.23 1.18-1.43 2.23-2.71 2.53l-3.72 19.12c1.28-.3 2.11.57 1.88 1.74 14.64-1.63 25.98 13.66 40.61 12.03.23-1.19 1.43-2.23 2.71-2.53z"/><path class="st4" d="M318.83 51.45c-.03.17 0 .35.1.53.1.18.27.37.49.57.1-.5.19-.99.29-1.49-.26-.07-.47-.07-.61.01-.15.07-.24.2-.27.38zM320.05 54.87c-.09.48-.19.97-.28 1.45.25.07.44.07.59.01.14-.06.23-.18.27-.36.03-.18 0-.35-.1-.53-.1-.18-.26-.37-.48-.57z"/><path class="st4" d="M321.19 45.82c-4.06-2.19-8.09-.17-8.94 4.18-.84 4.3 1.83 9.28 5.89 11.47 4.06 2.19 8.09.17 8.94-4.18.83-4.3-1.84-9.28-5.89-11.47zm.17 12.01c-.48.21-1.09.16-1.86-.13-.08.39-.15.78-.23 1.18-.33-.17-.66-.35-.99-.52.07-.38.15-.76.22-1.14a7.66 7.66 0 01-1.34-1c-.41-.38-.73-.75-.96-1.12l.79-1a6.197 6.197 0 001.77 1.75c.11-.58.23-1.17.34-1.75-.44-.36-.81-.7-1.11-1.02-.29-.32-.52-.67-.69-1.06-.16-.39-.2-.83-.11-1.3.11-.58.41-.98.89-1.19.48-.21 1.1-.16 1.87.14.08-.39.15-.78.23-1.16.33.17.66.35.99.52-.07.38-.15.76-.22 1.14.8.5 1.42 1.06 1.88 1.68-.25.35-.5.69-.75 1.04-.44-.56-.9-1-1.41-1.34-.12.59-.23 1.19-.35 1.78.44.35.8.69 1.1 1 .29.31.52.66.68 1.06.16.39.2.82.11 1.28-.08.57-.37.96-.85 1.16z"/><g><path class="st8" d="M346.85 68.65c-18.68 6.79-31.49-16.56-50.16-9.77l5.43-27.9c18.68-6.79 31.49 16.56 50.16 9.77-1.8 9.3-3.62 18.6-5.43 27.9z"/><path class="st9" d="M345.23 65l3.72-19.12c-1.28.3-2.11-.57-1.88-1.74-14.64 1.63-25.98-13.66-40.61-12.03-.23 1.18-1.43 2.23-2.71 2.53l-3.72 19.12c1.28-.3 2.11.57 1.88 1.74 14.64-1.63 25.98 13.66 40.61 12.03.23-1.18 1.42-2.23 2.71-2.53z"/><path class="st4" d="M323.65 47.62c-.03.17 0 .35.1.53.1.18.27.37.49.57.1-.5.19-.99.29-1.49-.26-.07-.47-.07-.61.01-.14.07-.23.2-.27.38zM324.88 51.04c-.09.48-.19.97-.28 1.45.25.07.44.07.59.01.14-.06.23-.18.27-.36.03-.18 0-.35-.1-.53-.11-.17-.26-.36-.48-.57z"/><path class="st4" d="M326.01 41.99c-4.06-2.19-8.09-.17-8.94 4.18-.84 4.3 1.83 9.28 5.89 11.47 4.06 2.19 8.09.17 8.94-4.18.84-4.29-1.83-9.27-5.89-11.47zm.18 12.02c-.48.2-1.09.16-1.86-.13-.08.39-.15.78-.23 1.17-.33-.17-.66-.35-.99-.52.07-.38.15-.76.22-1.14a7.66 7.66 0 01-1.34-1c-.41-.38-.73-.75-.96-1.12l.79-1a6.197 6.197 0 001.77 1.75c.11-.58.23-1.17.34-1.75-.44-.36-.81-.7-1.11-1.02-.29-.32-.52-.67-.69-1.06-.16-.39-.2-.83-.11-1.3.11-.58.41-.98.89-1.19.48-.21 1.1-.16 1.87.14.08-.39.15-.78.23-1.16.33.17.66.35.99.52-.07.38-.15.76-.22 1.14.8.5 1.42 1.06 1.88 1.68-.25.35-.5.69-.75 1.04-.44-.56-.9-1-1.41-1.34-.12.59-.23 1.19-.35 1.78.44.35.8.69 1.1 1 .29.31.52.66.68 1.06.16.39.2.82.11 1.28-.08.57-.38.96-.85 1.17z"/></g></g><g><path class="st0" d="M96.29 169.78h116.55l16.34 162.65-6.24 6.83H106.39l-12.4-165.81z"/><path class="st10" d="M112.62 332.43h116.56l-16.34-162.65H96.29z"/><g class="st11"><path class="st4" d="M114.02 336.93h107.95c.79 0 .8-1.23 0-1.23H114.02c-.79-.01-.79 1.23 0 1.23z"/></g><g class="st11"><path class="st4" d="M101.44 253.46c2.09 23.78 4.19 47.55 6.28 71.33.3 3.36.59 6.73.89 10.09.07.78 1.3.79 1.23 0-2.09-23.78-4.19-47.55-6.28-71.33-.3-3.36-.59-6.73-.89-10.09-.07-.79-1.3-.8-1.23 0z"/></g><path class="st12" d="M174.68 195.76h10.8c1.3 0 2.26-1.06 2.15-2.36l-.12-1.32c-.11-1.3-1.26-2.36-2.56-2.36h-10.8c-1.3 0-2.26 1.06-2.15 2.36l.12 1.32c.11 1.3 1.25 2.36 2.56 2.36zM173.66 208.22h12.91c1.3 0 2.26-1.06 2.15-2.36l-.12-1.32c-.11-1.3-1.26-2.36-2.56-2.36h-12.91c-1.3 0-2.26 1.06-2.15 2.36l.12 1.32c.11 1.3 1.26 2.36 2.56 2.36zM176.86 220.68h10.8c1.3 0 2.26-1.06 2.15-2.36l-.12-1.32c-.11-1.3-1.26-2.36-2.56-2.36h-10.8c-1.3 0-2.26 1.06-2.15 2.36l.12 1.32c.11 1.31 1.25 2.36 2.56 2.36zM174.83 233.14h13.92c1.3 0 2.26-1.06 2.15-2.36l-.12-1.32c-.11-1.3-1.26-2.36-2.56-2.36H174.3c-1.3 0-2.26 1.06-2.15 2.36l.12 1.32c.11 1.31 1.26 2.36 2.56 2.36zM178.16 245.61h32.28c1.3 0 2.26-1.06 2.15-2.36l-.12-1.32c-.11-1.3-1.26-2.36-2.56-2.36h-32.28c-1.3 0-2.26 1.06-2.15 2.36l.12 1.32c.11 1.3 1.26 2.36 2.56 2.36zM174.86 258.07h36.67c1.3 0 2.26-1.06 2.15-2.36l-.12-1.32c-.11-1.3-1.26-2.36-2.56-2.36h-36.67c-1.3 0-2.26 1.06-2.15 2.36l.12 1.32c.11 1.3 1.26 2.36 2.56 2.36zM179.11 270.53h33.51c1.3 0 2.26-1.06 2.15-2.36l-.12-1.32c-.11-1.3-1.26-2.36-2.56-2.36h-33.51c-1.3 0-2.26 1.06-2.15 2.36l.12 1.32c.11 1.31 1.26 2.36 2.56 2.36z"/><g class="st13"><path class="st4" d="M174.68 195.76h10.8c1.3 0 2.26-1.06 2.15-2.36l-.12-1.32c-.11-1.3-1.26-2.36-2.56-2.36h-10.8c-1.3 0-2.26 1.06-2.15 2.36l.12 1.32c.11 1.3 1.25 2.36 2.56 2.36zM173.66 208.22h12.91c1.3 0 2.26-1.06 2.15-2.36l-.12-1.32c-.11-1.3-1.26-2.36-2.56-2.36h-12.91c-1.3 0-2.26 1.06-2.15 2.36l.12 1.32c.11 1.3 1.26 2.36 2.56 2.36zM176.86 220.68h10.8c1.3 0 2.26-1.06 2.15-2.36l-.12-1.32c-.11-1.3-1.26-2.36-2.56-2.36h-10.8c-1.3 0-2.26 1.06-2.15 2.36l.12 1.32c.11 1.31 1.25 2.36 2.56 2.36zM174.83 233.14h13.92c1.3 0 2.26-1.06 2.15-2.36l-.12-1.32c-.11-1.3-1.26-2.36-2.56-2.36H174.3c-1.3 0-2.26 1.06-2.15 2.36l.12 1.32c.11 1.31 1.26 2.36 2.56 2.36zM178.16 245.61h32.28c1.3 0 2.26-1.06 2.15-2.36l-.12-1.32c-.11-1.3-1.26-2.36-2.56-2.36h-32.28c-1.3 0-2.26 1.06-2.15 2.36l.12 1.32c.11 1.3 1.26 2.36 2.56 2.36zM174.86 258.07h36.67c1.3 0 2.26-1.06 2.15-2.36l-.12-1.32c-.11-1.3-1.26-2.36-2.56-2.36h-36.67c-1.3 0-2.26 1.06-2.15 2.36l.12 1.32c.11 1.3 1.26 2.36 2.56 2.36zM179.11 270.53h33.51c1.3 0 2.26-1.06 2.15-2.36l-.12-1.32c-.11-1.3-1.26-2.36-2.56-2.36h-33.51c-1.3 0-2.26 1.06-2.15 2.36l.12 1.32c.11 1.31 1.26 2.36 2.56 2.36z"/></g><g><path class="st2" d="M153.26 195.76h7.67c1.3 0 2.26-1.06 2.15-2.36l-.12-1.32c-.11-1.3-1.26-2.36-2.56-2.36h-7.67c-1.3 0-2.26 1.06-2.15 2.36l.12 1.32c.11 1.3 1.26 2.36 2.56 2.36zM154.35 208.22h7.67c1.3 0 2.26-1.06 2.15-2.36l-.12-1.32c-.11-1.3-1.26-2.36-2.56-2.36h-7.67c-1.3 0-2.26 1.06-2.15 2.36l.12 1.32c.11 1.3 1.26 2.36 2.56 2.36zM155.44 220.68h7.67c1.3 0 2.26-1.06 2.15-2.36l-.12-1.32c-.11-1.3-1.26-2.36-2.56-2.36h-7.67c-1.3 0-2.26 1.06-2.15 2.36l.12 1.32c.11 1.31 1.26 2.36 2.56 2.36zM156.53 233.14h7.67c1.3 0 2.26-1.06 2.15-2.36l-.12-1.32c-.11-1.3-1.26-2.36-2.56-2.36H156c-1.3 0-2.26 1.06-2.15 2.36l.12 1.32c.11 1.31 1.26 2.36 2.56 2.36zM157.62 245.61h7.67c1.3 0 2.26-1.06 2.15-2.36l-.12-1.32c-.11-1.3-1.26-2.36-2.56-2.36h-7.67c-1.3 0-2.26 1.06-2.15 2.36l.12 1.32c.11 1.3 1.26 2.36 2.56 2.36zM158.71 258.07h7.67c1.3 0 2.26-1.06 2.15-2.36l-.12-1.32c-.11-1.3-1.26-2.36-2.56-2.36h-7.67c-1.3 0-2.26 1.06-2.15 2.36l.12 1.32c.11 1.3 1.26 2.36 2.56 2.36zM159.8 270.53h7.67c1.3 0 2.26-1.06 2.15-2.36l-.12-1.32c-.11-1.3-1.26-2.36-2.56-2.36h-7.67c-1.3 0-2.26 1.06-2.15 2.36l.12 1.32c.11 1.31 1.26 2.36 2.56 2.36z"/></g><g class="st13"><path class="st4" d="M153.34 195.76h7.67c1.3 0 2.26-1.06 2.15-2.36l-.12-1.32c-.11-1.3-1.26-2.36-2.56-2.36h-7.67c-1.3 0-2.26 1.06-2.15 2.36l.12 1.32c.11 1.3 1.26 2.36 2.56 2.36zM154.43 208.22h7.67c1.3 0 2.26-1.06 2.15-2.36l-.12-1.32c-.11-1.3-1.26-2.36-2.56-2.36h-7.67c-1.3 0-2.26 1.06-2.15 2.36l.12 1.32c.11 1.3 1.26 2.36 2.56 2.36zM155.52 220.68h7.67c1.3 0 2.26-1.06 2.15-2.36l-.12-1.32c-.11-1.3-1.26-2.36-2.56-2.36H155c-1.3 0-2.26 1.06-2.15 2.36l.12 1.32c.11 1.31 1.25 2.36 2.55 2.36zM156.61 233.14h7.67c1.3 0 2.26-1.06 2.15-2.36l-.12-1.32c-.11-1.3-1.26-2.36-2.56-2.36h-7.67c-1.3 0-2.26 1.06-2.15 2.36l.12 1.32c.12 1.31 1.26 2.36 2.56 2.36zM157.71 245.61h7.67c1.3 0 2.26-1.06 2.15-2.36l-.12-1.32c-.11-1.3-1.26-2.36-2.56-2.36h-7.67c-1.3 0-2.26 1.06-2.15 2.36l.12 1.32c.11 1.3 1.25 2.36 2.56 2.36zM158.8 258.07h7.67c1.3 0 2.26-1.06 2.15-2.36l-.12-1.32c-.11-1.3-1.26-2.36-2.56-2.36h-7.67c-1.3 0-2.26 1.06-2.15 2.36l.12 1.32c.11 1.3 1.25 2.36 2.56 2.36zM159.89 270.53h7.67c1.3 0 2.26-1.06 2.15-2.36l-.12-1.32c-.11-1.3-1.26-2.36-2.56-2.36h-7.67c-1.3 0-2.26 1.06-2.15 2.36l.12 1.32c.11 1.31 1.25 2.36 2.56 2.36z"/></g><g><path class="st2" d="M120.49 286.44h36.22c1.3 0 2.26-1.06 2.15-2.36l-.12-1.32c-.11-1.3-1.26-2.36-2.56-2.36h-36.22c-1.3 0-2.26 1.06-2.15 2.36l.12 1.32c.11 1.3 1.26 2.36 2.56 2.36zM119.48 298.9h38.33c1.3 0 2.26-1.06 2.15-2.36l-.12-1.32c-.11-1.3-1.26-2.36-2.56-2.36h-38.33c-1.3 0-2.26 1.06-2.15 2.36l.12 1.32c.11 1.3 1.26 2.36 2.56 2.36zM122.67 311.36h36.22c1.3 0 2.26-1.06 2.15-2.36l-.12-1.32c-.11-1.3-1.26-2.36-2.56-2.36h-36.22c-1.3 0-2.26 1.06-2.15 2.36l.12 1.32c.11 1.31 1.26 2.36 2.56 2.36zM120.65 323.83h39.33c1.3 0 2.26-1.06 2.15-2.36l-.12-1.32c-.11-1.3-1.26-2.36-2.56-2.36h-39.33c-1.3 0-2.26 1.06-2.15 2.36l.12 1.32c.11 1.3 1.26 2.36 2.56 2.36z"/><g class="st13"><path class="st4" d="M120.49 286.44h36.22c1.3 0 2.26-1.06 2.15-2.36l-.12-1.32c-.11-1.3-1.26-2.36-2.56-2.36h-36.22c-1.3 0-2.26 1.06-2.15 2.36l.12 1.32c.11 1.3 1.26 2.36 2.56 2.36zM119.48 298.9h38.33c1.3 0 2.26-1.06 2.15-2.36l-.12-1.32c-.11-1.3-1.26-2.36-2.56-2.36h-38.33c-1.3 0-2.26 1.06-2.15 2.36l.12 1.32c.11 1.3 1.26 2.36 2.56 2.36zM122.67 311.36h36.22c1.3 0 2.26-1.06 2.15-2.36l-.12-1.32c-.11-1.3-1.26-2.36-2.56-2.36h-36.22c-1.3 0-2.26 1.06-2.15 2.36l.12 1.32c.11 1.31 1.26 2.36 2.56 2.36zM120.65 323.83h39.33c1.3 0 2.26-1.06 2.15-2.36l-.12-1.32c-.11-1.3-1.26-2.36-2.56-2.36h-39.33c-1.3 0-2.26 1.06-2.15 2.36l.12 1.32c.11 1.3 1.26 2.36 2.56 2.36z"/></g></g><g><path d="M147.51 172.82l1.16-.24-5.85-19.99c-.55-1.89-.29-3.77.72-5.16 1-1.37 2.58-2.13 4.46-2.13 3.97 0 7.77 3.46 8.13 7.41l1.85 19.99 1.21-.01-1.85-19.99c-.42-4.59-4.84-8.61-9.45-8.61-2.21 0-4.16.94-5.35 2.57-1.22 1.67-1.54 3.92-.88 6.16l5.85 20z"/><path class="st12" d="M138.91 176.09h33.42L171 160.87c-.16-1.77-1.72-3.21-3.49-3.21h-27c-1.77 0-3.09 1.44-2.93 3.21l1.33 15.22z"/><path class="st14" d="M138.89 176.09h33.42l-1.33-15.23c-.16-1.77-1.72-3.21-3.49-3.21h-27c-1.77 0-3.09 1.44-2.93 3.21l1.33 15.23z"/><path d="M150.89 172.76l1.19-.12-3.75-19.99c-.35-1.87.1-3.75 1.24-5.15 1.14-1.4 2.88-2.2 4.76-2.2s3.76.8 5.15 2.2c1.39 1.4 2.17 3.27 2.14 5.15l-.25 19.99 1.21.12.25-19.99c.03-2.21-.9-4.43-2.53-6.08-1.64-1.65-3.85-2.6-6.08-2.6-2.22 0-4.27.95-5.62 2.6-1.35 1.65-1.88 3.86-1.47 6.08l3.76 19.99z"/><g class="st14"><path class="st4" d="M150.89 172.76l1.19-.12-3.75-19.99c-.35-1.87.1-3.75 1.24-5.15 1.14-1.4 2.88-2.2 4.76-2.2s3.76.8 5.15 2.2c1.39 1.4 2.17 3.27 2.14 5.15l-.25 19.99 1.21.12.25-19.99c.03-2.21-.9-4.43-2.53-6.08-1.64-1.65-3.85-2.6-6.08-2.6-2.22 0-4.27.95-5.62 2.6-1.35 1.65-1.88 3.86-1.47 6.08l3.76 19.99z"/></g><path class="st12" d="M137.84 178.4h35.96c.62 0 1.09-.51 1.03-1.13l-.17-1.96c-.05-.62-.61-1.13-1.23-1.13h-35.96c-.62 0-1.09.51-1.03 1.13l.17 1.96c.06.62.61 1.13 1.23 1.13z"/></g><path class="st5" d="M212.2 286.42H164.3l.83 9.44.07.82.75 8.62.07.82.75 8.62.07.82.83 9.44H224.98l-.83-9.44-.07-.82-.75-8.62-.07-.82-.75-8.62-.07-.82-.83-9.44h-9.41zm.8 18.89h-8.56l-.75-8.62h8.56l.75 8.62zm-9.41 0h-8.56l-.75-8.62h8.56l.75 8.62zm-9.42 0h-8.56l-.75-8.62h8.56l.75 8.62zm-9.41 0h-8.56l-.75-8.62H184l.76 8.62zm-8.5.82h8.56l.75 8.62h-8.56l-.75-8.62zm9.42 0h8.56l.75 8.62h-8.56l-.75-8.62zm9.41 0h8.56l.75 8.62h-8.56l-.75-8.62zm9.42 0h8.56l.75 8.62h-8.56l-.75-8.62zm6.91-18.88l.75 8.62h-8.56l-.75-8.62h8.56zm-9.41 0l.75 8.62h-8.56l-.75-8.62h8.56zm-9.42 0l.75 8.62h-8.56l-.75-8.62h8.56zm-9.41 0l.75 8.62h-8.56l-.75-8.62h8.56zm-18.01 0h8.59l.75 8.62h-8.59l-.75-8.62zm.83 9.44h8.59l.75 8.62h-8.59l-.75-8.62zm.82 9.44h8.59l.75 8.62h-8.59l-.75-8.62zm1.58 18.06l-.75-8.62h8.59l.75 8.62h-8.59zm9.44 0l-.75-8.62h8.56l.75 8.62h-8.56zm9.42 0l-.75-8.62h8.56l.75 8.62h-8.56zm9.41 0l-.75-8.62h8.56l.75 8.62h-8.56zm9.42 0l-.75-8.62h8.56l.75 8.62h-8.56zm18 0h-8.59l-.75-8.62h8.59l.75 8.62zm-.82-9.44h-8.59l-.75-8.62h8.59l.75 8.62zm-.83-9.44h-8.59l-.75-8.62h8.59l.75 8.62zm-9.42-9.44l-.75-8.62h8.59l.75 8.62h-8.59z"/><g><path class="st12" d="M179.87 324.33h-6.09l-.83-9.31h6.09z"/><path class="st2" d="M192.04 324.33h-6.09l-1.65-18.61h6.08z"/><path class="st12" d="M204.21 324.33h-6.09l-1.08-12.18h6.09z"/><path class="st2" d="M216.38 324.33h-6.08l-2.29-25.72h6.09z"/><path class="st12" d="M171.96 303.88c-.48-.77-.28-1.73.46-2.14l13.74-7.74 12.47 4.06 12.5-8.32c.7-.46 1.69-.24 2.22.5.53.74.39 1.71-.3 2.18l-13.7 9.11-12.6-4.1-12.59 7.09c-.73.41-1.72.13-2.2-.64z"/></g><g><path class="st12" d="M131.84 222.32c8.39 0 14.59-6.8 13.85-15.18-.73-8.39-8.13-15.18-16.51-15.18-.69 0-1.35.06-2.01.15-.67-.09-1.35-.15-2.04-.15-8.39 0-14.59 6.8-13.85 15.18h9.4c-.41-4.74 2.59-8.69 6.97-9.62 4.54.93 8.24 4.89 8.65 9.62.48 5.43-3.54 9.83-8.97 9.83l.47 5.35h4.04z"/><path class="st12" d="M130.24 224.07l-.47-5.35c-5.43 0-10.22-4.4-10.69-9.83h-9.4c.73 8.39 8.13 15.18 16.51 15.18h4.05z"/><path class="st2" d="M131.84 222.32c8.39 0 14.59-6.8 13.85-15.18-.73-8.39-8.13-15.18-16.51-15.18-.69 0-1.35.06-2.01.15-.67-.09-1.35-.15-2.04-.15-8.39 0-14.59 6.8-13.85 15.18h9.4c-.41-4.74 2.59-8.69 6.97-9.62 4.54.93 8.24 4.89 8.65 9.62.48 5.43-3.54 9.83-8.97 9.83l.47 5.35h4.04z"/><path class="st2" d="M130.24 224.07l-.47-5.35c-5.43 0-10.22-4.4-10.69-9.83h-9.4c.73 8.39 8.13 15.18 16.51 15.18h4.05z"/><path class="st12" d="M120.67 207.14c-.48-5.43 3.54-9.83 8.97-9.83 5.43 0 10.22 4.4 10.69 9.83.48 5.43-3.54 9.83-8.97 9.83l.47 5.35c8.39 0 14.59-6.8 13.85-15.18-.73-8.39-8.13-15.18-16.51-15.18s-14.59 6.8-13.85 15.18h5.35z"/><path class="st12" d="M113.73 208.89c.73 8.39 8.13 15.18 16.51 15.18l-.47-5.35c-5.43 0-10.22-4.4-10.69-9.83h-5.35z"/><path class="st15" d="M113.73 208.89c.73 8.39 8.13 15.18 16.51 15.18l-.47-5.35c-5.43 0-10.22-4.4-10.69-9.83h-5.35z"/></g><g><path class="st12" d="M129.23 236.6c-.16-1.84-.22-2.5-.38-4.35h-4.05c-4.19 0-7.84 1.7-10.35 4.45l4.11 3.78h4.05a8.886 8.886 0 014.78-2.69c.11 1.2.18 2 .35 4.02 5.43 0 10.22 4.4 10.69 9.83h9.4c-.73-8.39-8.13-15.18-16.51-15.18l-2.09.14z"/><path class="st12" d="M135.88 268.57c8.39 0 14.59-6.8 13.85-15.18h-9.4c.41 4.64-2.47 8.52-6.7 9.55l-.13-1.47c-5.43 0-10.22-4.4-10.69-9.83-.24-2.72.65-5.17 2.27-6.95l-4.11-3.78h-4.05c-2.51 2.75-3.87 6.54-3.51 10.74.73 8.39 8.13 15.18 16.51 15.18l1.73-.19.17 1.94h4.06z"/><path class="st2" d="M129.23 236.6c-.16-1.84-.22-2.5-.38-4.35h-4.05c-4.19 0-7.84 1.7-10.35 4.45l4.11 3.78h4.05a8.886 8.886 0 014.78-2.69c.11 1.2.18 2 .35 4.02 5.43 0 10.22 4.4 10.69 9.83h9.4c-.73-8.39-8.13-15.18-16.51-15.18l-2.09.14z"/><path class="st2" d="M135.88 268.57c8.39 0 14.59-6.8 13.85-15.18h-9.4c.41 4.64-2.47 8.52-6.7 9.55l-.13-1.47c-5.43 0-10.22-4.4-10.69-9.83-.24-2.72.65-5.17 2.27-6.95l-4.11-3.78h-4.05c-2.51 2.75-3.87 6.54-3.51 10.74.73 8.39 8.13 15.18 16.51 15.18l1.73-.19.17 1.94h4.06z"/><path class="st12" d="M144.39 253.39c.48 5.43-3.54 9.83-8.97 9.83l.47 5.35c8.39 0 14.59-6.8 13.85-15.18h-5.35z"/><path class="st16" d="M144.39 253.39c.48 5.43-3.54 9.83-8.97 9.83l.47 5.35c8.39 0 14.59-6.8 13.85-15.18h-5.35z"/><path class="st12" d="M131.32 236.46c8.39 0 15.78 6.8 16.51 15.18h-5.35c-.48-5.43-5.26-9.83-10.69-9.83-.23-2.66-.28-3.2-.47-5.35zM125.09 244.69c-1.62 1.78-2.51 4.24-2.27 6.95.48 5.43 5.26 9.83 10.69 9.83l.47 5.35c-8.39 0-15.78-6.8-16.51-15.18-.37-4.19 1-7.99 3.51-10.74l4.11 3.79zM122.62 240.48l-4.11-3.78c2.51-2.75 6.15-4.45 10.35-4.45.19 2.15.23 2.69.47 5.35-2.73 0-5.09 1.1-6.71 2.88z"/><path class="st15" d="M122.62 240.48l-4.11-3.78c2.51-2.75 6.15-4.45 10.35-4.45.19 2.15.23 2.69.47 5.35-2.73 0-5.09 1.1-6.71 2.88z"/></g></g><ellipse id="_x3C_Path_x3E__00000109751354196725682060000003051987984026995370_" cx="296.69" cy="349.91" rx="181.21" ry="10.58" fill="#f6f6f6"/><g><path class="st0" d="M392.8 293.61l50.8 2.96c1.8.1 3.57.54 5.21 1.27l55.18 24.7c2 .9 3.11 3.05 2.66 5.16l-9.13 43.11c-.63 2.96-3.92 4.52-6.67 3.15l-54.46-27.19-50.29-1.7c-2.64-.09-4.61-2.45-4.19-5.02l6.73-41.29c.36-2.13 1.97-5.21 4.16-5.15z"/><path class="st18" d="M392.8 293.61l50.8 2.96c1.8.1 3.57.54 5.21 1.27l55.18 24.7c2 .9 3.11 3.05 2.66 5.16l-9.13 43.11c-.63 2.96-3.92 4.52-6.67 3.15l-54.46-27.19-50.29-1.7c-2.64-.09-4.61-2.45-4.19-5.02l6.73-41.29c.36-2.13 1.97-5.21 4.16-5.15z"/><path transform="scale(-1) rotate(42.666 777.873 -1239.768)" class="st19" d="M466.05 268.49h36.26v70.58h-36.26z"/><path class="st20" d="M446.93 317.44l26.66 24.57 47.84-51.89-17.5-16.13-9.16-8.45-1.53 1.66z"/><path transform="scale(-1) rotate(42.666 778.009 -1239.263)" class="st21" d="M467.99 270.82h31.99v66.02h-31.99z"/><ellipse transform="rotate(-47.33 484.337 303.437)" class="st19" cx="484.34" cy="303.45" rx="8.33" ry="6.64"/><path class="st18" d="M473.88 320.95l9.47 3.27 20.58-50.23-9.16-8.45-1.53 1.66z"/><path transform="scale(-1) rotate(19.926 1620.025 -2715.75)" class="st19" d="M458.92 249.27h36.26v70.58h-36.26z"/><path transform="scale(-1) rotate(19.926 1620.025 -2715.75)" class="st20" d="M458.92 249.27h36.26v70.58h-36.26z"/><path transform="scale(-1) rotate(19.926 1620.737 -2714.833)" class="st21" d="M460.89 251.68h31.99v66.02h-31.99z"/><ellipse transform="rotate(-70.074 477.07 284.209)" class="st19" cx="477.07" cy="284.2" rx="8.33" ry="6.64"/><path class="st0" d="M392.47 295.36l50.1 2.82c1.78.1 3.52.53 5.14 1.26l54.37 24.55c1.97.89 3.06 3.04 2.61 5.15l-9.12 43.12c-.63 2.96-3.88 4.52-6.58 3.16l-53.65-27.03-49.6-1.57c-2.61-.08-4.54-2.44-4.12-5.01l6.75-41.28c.34-2.14 1.94-5.22 4.1-5.17z"/><path class="st22" d="M440.54 305.74l-42.99-2.65M445.69 306.85l-7.86 36.08"/><g><path class="st23" d="M498.05 339.42l-5.54 27.75s-4.25-11.01 5.54-27.75zM497.32 339.75c-.19.51-49.19-20.53-49.19-20.53s-1.24 15.12 13.51 23.4c14.74 8.26 35.68-2.87 35.68-2.87z"/><circle class="st2" cx="464.77" cy="338.44" r="2.12"/><path class="st14" d="M448.1 319.21s-6.08 9.14-4.61 24.73"/></g><g class="st14"><path class="st24" d="M500.39 328.52l-1.13-.5"/><path fill="none" stroke="#fafafa" stroke-width=".494" stroke-linecap="round" stroke-linejoin="round" stroke-dasharray="2.5656,2.5656" d="M496.92 326.99l-45.76-20.23"/><path class="st24" d="M449.98 306.24l-1.12-.5"/></g><g><path class="st22" d="M439.09 313.85l-42.98-2.65M437.16 323.96l-42.99-2.64"/></g></g><g><path class="st2" d="M404 338.21c-.05-.01-.11-.03-.17-.04-12.4-2.89-21.26-13.81-21.26-26.55v-67.65h-19.81v67.65c0 12.73-8.86 23.65-21.26 26.55-.06.01-.11.03-.16.04-3.02.71-8.13 2.48-13.09 4.31-2.86 1.05-2.11 5.29.94 5.29h86.95c3.05 0 3.8-4.23.94-5.29-4.95-1.82-10.06-3.59-13.08-4.31z"/><path class="st6" d="M404 338.21c-.05-.01-.11-.03-.17-.04-12.4-2.89-21.26-13.81-21.26-26.55v-67.65h-19.81v67.65c0 12.73-8.86 23.65-21.26 26.55-.06.01-.11.03-.16.04-3.02.71-8.13 2.48-13.09 4.31-2.86 1.05-2.11 5.29.94 5.29h86.95c3.05 0 3.8-4.23.94-5.29-4.95-1.82-10.06-3.59-13.08-4.31z"/><path class="st13" d="M404 338.21c-.05-.01-.11-.03-.17-.04-12.4-2.89-21.26-13.81-21.26-26.55v-67.65h-19.81v9.72h7.27c4.36 0 7.9 3.53 7.9 7.9v48.11c0 9.28 3.68 18.17 10.24 24.73l13.37 13.37h14.6c3.05 0 3.8-4.23.94-5.29-4.95-1.81-10.06-3.58-13.08-4.3z"/><g><path class="st2" d="M286.75 248.14h157.4c3.18 0 5.98-2.58 6.26-5.76l9.95-113.74c.28-3.18-2.07-5.76-5.25-5.76h-157.4c-3.18 0-5.99 2.58-6.26 5.76l-9.95 113.74c-.28 3.18 2.07 5.76 5.25 5.76z"/><g class="st11"><path class="st4" d="M286.75 248.14h157.4c3.18 0 5.98-2.58 6.26-5.76l9.95-113.74c.28-3.18-2.07-5.76-5.25-5.76h-157.4c-3.18 0-5.99 2.58-6.26 5.76l-9.95 113.74c-.28 3.18 2.07 5.76 5.25 5.76z"/></g><path class="st2" d="M282.58 230.08l-1.08 12.3c-.28 3.18 2.07 5.75 5.25 5.75h157.41c3.18 0 5.98-2.58 6.26-5.75l1.08-12.3H282.58z"/><path class="st10" d="M282.58 230.08l-1.08 12.3c-.28 3.18 2.07 5.75 5.25 5.75h157.41c3.18 0 5.98-2.58 6.26-5.75l1.08-12.3H282.58z"/><path class="st26" d="M445.94 226.61h-157.2c-1.72 0-3-1.4-2.85-3.12l8.22-94.01c.15-1.72 1.67-3.12 3.39-3.12h157.2c1.72 0 3 1.4 2.85 3.12l-8.22 94.01c-.15 1.72-1.67 3.12-3.39 3.12z"/><path class="st10" d="M445.94 226.61h-157.2c-1.72 0-3-1.4-2.85-3.12l8.22-94.01c.15-1.72 1.67-3.12 3.39-3.12h157.2c1.72 0 3 1.4 2.85 3.12l-8.22 94.01c-.15 1.72-1.67 3.12-3.39 3.12z"/><g><path class="st2" d="M458.6 122.89h-3.48c3.18 0 5.53 2.58 5.25 5.75l-9.95 113.74c-.28 3.18-3.08 5.75-6.26 5.75h3.48c3.18 0 5.98-2.58 6.26-5.75l9.95-113.74c.28-3.18-2.08-5.75-5.25-5.75z"/><path d="M458.6 122.89h-3.48c3.18 0 5.53 2.58 5.25 5.75l-9.95 113.74c-.28 3.18-3.08 5.75-6.26 5.75h3.48c3.18 0 5.98-2.58 6.26-5.75l9.95-113.74c.28-3.18-2.08-5.75-5.25-5.75z" opacity=".3" fill="#5a595c"/></g><g class="st16"><path class="st4" d="M389.9 126.36h6.05l21.31 100.25h-6.05zM423.37 226.61l-21.31-100.25h22.72l21.31 100.25z"/></g></g></g><g><path class="st12" d="M397.3 208.37h-83.45l4.17-47.61h83.44z"/><path class="st28" d="M397.3 208.37h-83.45l4.17-47.61h83.44z"/><path class="st29" d="M318.5 191.32h-1.31l1.18-13.51h1.31z"/><path class="st2" d="M321.29 187.25h-1.31l1.18-13.5h1.31z"/><path class="st29" d="M324.07 183.33h-1.31l1.18-13.5h1.31z"/><path class="st2" d="M326.28 185.84h-1.31l1.19-13.5h1.3z"/><path class="st29" d="M327.88 195.42h-1.31l1.18-13.5h1.31z"/><path class="st2" d="M330.08 198.07h-1.3l1.18-13.5h1.3z"/><path class="st29" d="M332.16 202.17h-1.31l1.18-13.5h1.31z"/><path class="st2" d="M335.54 191.32h-1.3l1.18-13.51h1.3z"/><path class="st29" d="M338.21 188.67h-1.31l1.18-13.5h1.31z"/><path class="st2" d="M340.77 187.25h-1.31l1.18-13.5h1.31z"/><path class="st29" d="M342.67 193.39h-1.31l1.18-13.5h1.31z"/><path class="st2" d="M344.92 195.42h-1.3l1.18-13.5h1.31z"/><path class="st29" d="M347.54 193.39h-1.31l1.18-13.5h1.31z"/><path class="st2" d="M350.15 191.32h-1.3l1.18-13.51h1.3z"/><path class="st29" d="M352.89 187.87h-1.31l1.18-13.5h1.31z"/><path class="st2" d="M355.43 186.64h-1.3l1.18-13.5h1.3z"/><path class="st29" d="M357.46 191.32h-1.31l1.18-13.51h1.31z"/><path class="st2" d="M360.12 188.67h-1.3l1.18-13.5h1.31z"/><path class="st29" d="M362.74 186.64h-1.31l1.18-13.5h1.31z"/><path class="st2" d="M365.35 184.57h-1.3l1.18-13.51h1.31z"/><path class="st29" d="M367.55 187.25h-1.3l1.18-13.5h1.31z"/><path class="st2" d="M369.86 188.67h-1.3l1.18-13.5h1.31z"/><path class="st29" d="M372.07 191.32h-1.31l1.18-13.51h1.31z"/><path class="st2" d="M374.32 193.39h-1.3l1.18-13.5h1.3z"/><path class="st29" d="M376.46 196.83h-1.31l1.18-13.5h1.31z"/><path class="st2" d="M378.6 200.14h-1.31l1.19-13.5h1.3z"/><path class="st29" d="M381.39 196.15h-1.31l1.18-13.5h1.31z"/><path class="st2" d="M384.48 188.67h-1.31l1.18-13.5h1.31z"/><path class="st29" d="M387.16 185.84h-1.31l1.18-13.5h1.31z"/><path class="st2" d="M390.01 181.12h-1.31l1.18-13.5h1.31z"/><path class="st29" d="M392.03 185.84h-1.31l1.18-13.5h1.31z"/><path class="st2" d="M393.62 195.42h-1.3l1.18-13.5h1.31z"/><path class="st29" d="M396.72 187.87h-1.31l1.19-13.5h1.3z"/><path class="st2" d="M311.9 163.94h-4.38c-.88 0-1.52-.71-1.45-1.59.08-.88.85-1.59 1.73-1.59h4.38c.88 0 1.52.71 1.45 1.59-.08.87-.85 1.59-1.73 1.59z"/><path class="st12" d="M311.35 170.28h-4.38c-.88 0-1.52-.71-1.45-1.59.08-.88.85-1.59 1.73-1.59h4.38c.88 0 1.52.71 1.45 1.59-.09.88-.86 1.59-1.73 1.59zM310.79 176.63h-4.38c-.88 0-1.52-.71-1.45-1.59.08-.88.85-1.59 1.73-1.59h4.38c.88 0 1.52.71 1.45 1.59-.08.88-.85 1.59-1.73 1.59zM310.23 182.98h-4.38c-.88 0-1.52-.71-1.45-1.59.08-.88.85-1.59 1.73-1.59h4.38c.88 0 1.52.71 1.45 1.59-.08.88-.85 1.59-1.73 1.59zM309.68 189.33h-4.38c-.88 0-1.52-.71-1.45-1.59.08-.88.85-1.59 1.73-1.59h4.38c.88 0 1.52.71 1.45 1.59-.08.88-.85 1.59-1.73 1.59zM309.12 195.67h-4.38c-.88 0-1.52-.71-1.45-1.59.08-.88.85-1.59 1.73-1.59h4.38c.88 0 1.52.71 1.45 1.59-.08.88-.85 1.59-1.73 1.59zM308.57 202.02h-4.38c-.88 0-1.52-.71-1.45-1.59.08-.88.85-1.59 1.73-1.59h4.38c.88 0 1.52.71 1.45 1.59-.08.88-.85 1.59-1.73 1.59zM308.01 208.37h-4.38c-.88 0-1.52-.71-1.45-1.59.08-.88.85-1.59 1.73-1.59h4.38c.88 0 1.52.71 1.45 1.59-.08.88-.85 1.59-1.73 1.59z"/><g><path class="st0" d="M440.92 163.88l-2.21-2.42c-.12-.13-.33-.13-.47 0l-.98.9c-.14.13-.35.13-.47 0l-.82-.9c-.12-.13-.33-.13-.47 0l-.98.9c-.14.13-.35.13-.47 0l-.82-.9c-.12-.13-.33-.13-.47 0l-.98.9c-.14.13-.35.13-.47 0l-.82-.9c-.12-.13-.33-.13-.47 0l-.98.9c-.14.13-.35.13-.47 0l-.82-.9c-.12-.13-.33-.13-.47 0l-.98.9c-.14.13-.35.13-.47 0l-.82-.9c-.12-.13-.33-.13-.47 0l-.98.9c-.14.13-.35.13-.47 0l-.82-.9c-.12-.13-.33-.13-.47 0l-.98.9c-.14.13-.35.13-.47 0l-.82-.9c-.12-.13-.33-.13-.47 0l-.98.9c-.14.13-.35.13-.47 0l-.82-.9c-.12-.13-.33-.13-.47 0l-.98.9c-.14.13-.35.13-.47 0l-.82-.9c-.12-.13-.33-.13-.47 0l-.98.9c-.14.13-.35.13-.47 0l-.82-.9c-.12-.13-.33-.13-.47 0l-.98.9c-.14.13-.35.13-.47 0l-.82-.9c-.12-.13-.33-.13-.47 0l-2.64 2.42-4.59 52.41 2.21 2.42c.12.13.33.13.47 0l.98-.9c.14-.13.35-.13.47 0l.82.9c.12.13.33.13.47 0l.98-.9c.14-.13.35-.13.47 0l.82.9c.12.13.33.13.47 0l.98-.9c.14-.13.35-.13.47 0l.82.9c.12.13.33.13.47 0l.98-.9c.14-.13.35-.13.47 0l.82.9c.12.13.33.13.47 0l.98-.9c.14-.13.35-.13.47 0l.82.9c.12.13.33.13.47 0l.98-.9c.14-.13.35-.13.47 0l.82.9c.12.13.33.13.47 0l.98-.9c.14-.13.35-.13.47 0l.82.9c.12.13.33.13.47 0l.98-.9c.14-.13.35-.13.47 0l.82.9c.12.13.33.13.47 0l.98-.9c.14-.13.35-.13.47 0l.82.9c.12.13.33.13.47 0l.98-.9c.14-.13.35-.13.47 0l.82.9c.12.13.33.13.47 0l.98-.9c.14-.13.35-.13.47 0l.82.9c.12.13.33.13.47 0l2.64-2.42 4.59-52.41z"/><path class="st28" d="M440.92 163.88l-2.21-2.42c-.12-.13-.33-.13-.47 0l-.98.9c-.14.13-.35.13-.47 0l-.82-.9c-.12-.13-.33-.13-.47 0l-.98.9c-.14.13-.35.13-.47 0l-.82-.9c-.12-.13-.33-.13-.47 0l-.98.9c-.14.13-.35.13-.47 0l-.82-.9c-.12-.13-.33-.13-.47 0l-.98.9c-.14.13-.35.13-.47 0l-.82-.9c-.12-.13-.33-.13-.47 0l-.98.9c-.14.13-.35.13-.47 0l-.82-.9c-.12-.13-.33-.13-.47 0l-.98.9c-.14.13-.35.13-.47 0l-.82-.9c-.12-.13-.33-.13-.47 0l-.98.9c-.14.13-.35.13-.47 0l-.82-.9c-.12-.13-.33-.13-.47 0l-.98.9c-.14.13-.35.13-.47 0l-.82-.9c-.12-.13-.33-.13-.47 0l-.98.9c-.14.13-.35.13-.47 0l-.82-.9c-.12-.13-.33-.13-.47 0l-.98.9c-.14.13-.35.13-.47 0l-.82-.9c-.12-.13-.33-.13-.47 0l-.98.9c-.14.13-.35.13-.47 0l-.82-.9c-.12-.13-.33-.13-.47 0l-2.64 2.42-4.59 52.41 2.21 2.42c.12.13.33.13.47 0l.98-.9c.14-.13.35-.13.47 0l.82.9c.12.13.33.13.47 0l.98-.9c.14-.13.35-.13.47 0l.82.9c.12.13.33.13.47 0l.98-.9c.14-.13.35-.13.47 0l.82.9c.12.13.33.13.47 0l.98-.9c.14-.13.35-.13.47 0l.82.9c.12.13.33.13.47 0l.98-.9c.14-.13.35-.13.47 0l.82.9c.12.13.33.13.47 0l.98-.9c.14-.13.35-.13.47 0l.82.9c.12.13.33.13.47 0l.98-.9c.14-.13.35-.13.47 0l.82.9c.12.13.33.13.47 0l.98-.9c.14-.13.35-.13.47 0l.82.9c.12.13.33.13.47 0l.98-.9c.14-.13.35-.13.47 0l.82.9c.12.13.33.13.47 0l.98-.9c.14-.13.35-.13.47 0l.82.9c.12.13.33.13.47 0l.98-.9c.14-.13.35-.13.47 0l.82.9c.12.13.33.13.47 0l2.64-2.42 4.59-52.41z"/><g><path class="st2" d="M418.13 170.32h-7.11c-.92 0-1.6-.75-1.52-1.67.08-.92.89-1.67 1.82-1.67h7.11c.92 0 1.6.75 1.52 1.67-.09.92-.9 1.67-1.82 1.67zM434.1 170.32h-1.89c-.92 0-1.6-.75-1.52-1.67.08-.92.89-1.67 1.82-1.67h1.89c.92 0 1.6.75 1.52 1.67-.09.92-.9 1.67-1.82 1.67zM421.07 176.52h-10.6c-.92 0-1.6-.75-1.52-1.67.08-.92.89-1.67 1.82-1.67h10.6c.92 0 1.6.75 1.52 1.67-.09.92-.9 1.67-1.82 1.67zM433.56 176.52h-1.89c-.92 0-1.6-.75-1.52-1.67.08-.92.89-1.67 1.82-1.67h1.89c.92 0 1.6.75 1.52 1.67-.09.92-.9 1.67-1.82 1.67zM417.04 182.73h-7.11c-.92 0-1.6-.75-1.52-1.67.08-.92.89-1.67 1.82-1.67h7.11c.92 0 1.6.75 1.52 1.67-.08.92-.9 1.67-1.82 1.67zM433.01 182.73h-1.89c-.92 0-1.6-.75-1.52-1.67.08-.92.89-1.67 1.82-1.67h1.89c.92 0 1.6.75 1.52 1.67-.08.92-.9 1.67-1.82 1.67zM418.24 188.94h-8.86c-.92 0-1.6-.75-1.52-1.67.08-.92.89-1.67 1.82-1.67h8.86c.92 0 1.6.75 1.52 1.67-.08.92-.9 1.67-1.82 1.67zM432.47 188.94h-1.89c-.92 0-1.6-.75-1.52-1.67.08-.92.89-1.67 1.82-1.67h1.89c.92 0 1.6.75 1.52 1.67-.09.92-.9 1.67-1.82 1.67zM421.18 195.14h-12.34c-.92 0-1.6-.75-1.52-1.67.08-.92.89-1.67 1.82-1.67h12.34c.92 0 1.6.75 1.52 1.67-.08.93-.9 1.67-1.82 1.67zM431.93 195.14h-1.89c-.92 0-1.6-.75-1.52-1.67.08-.92.89-1.67 1.82-1.67h1.89c.92 0 1.6.75 1.52 1.67-.09.93-.9 1.67-1.82 1.67zM417.15 201.35h-8.86c-.92 0-1.6-.75-1.52-1.67.08-.92.89-1.67 1.82-1.67h8.86c.92 0 1.6.75 1.52 1.67-.08.92-.89 1.67-1.82 1.67zM429.09 207.22h-21.31c-.92 0-1.6-.75-1.52-1.67.08-.92.89-1.67 1.82-1.67h21.31c.92 0 1.6.75 1.52 1.67-.08.93-.9 1.67-1.82 1.67zM431.38 201.35h-1.89c-.92 0-1.6-.75-1.52-1.67.08-.92.89-1.67 1.82-1.67h1.89c.92 0 1.6.75 1.52 1.67-.08.92-.89 1.67-1.82 1.67zM430.36 213.1h-1.89c-.92 0-1.6-.75-1.52-1.67.08-.92.89-1.67 1.82-1.67h1.89c.92 0 1.6.75 1.52 1.67-.09.92-.9 1.67-1.82 1.67z"/><g class="st16"><path class="st4" d="M418.13 170.32h-7.11c-.92 0-1.6-.75-1.52-1.67.08-.92.89-1.67 1.82-1.67h7.11c.92 0 1.6.75 1.52 1.67-.09.92-.9 1.67-1.82 1.67zM434.1 170.32h-1.89c-.92 0-1.6-.75-1.52-1.67.08-.92.89-1.67 1.82-1.67h1.89c.92 0 1.6.75 1.52 1.67-.09.92-.9 1.67-1.82 1.67zM421.07 176.52h-10.6c-.92 0-1.6-.75-1.52-1.67.08-.92.89-1.67 1.82-1.67h10.6c.92 0 1.6.75 1.52 1.67-.09.92-.9 1.67-1.82 1.67zM433.56 176.52h-1.89c-.92 0-1.6-.75-1.52-1.67.08-.92.89-1.67 1.82-1.67h1.89c.92 0 1.6.75 1.52 1.67-.09.92-.9 1.67-1.82 1.67zM417.04 182.73h-7.11c-.92 0-1.6-.75-1.52-1.67.08-.92.89-1.67 1.82-1.67h7.11c.92 0 1.6.75 1.52 1.67-.08.92-.9 1.67-1.82 1.67zM433.01 182.73h-1.89c-.92 0-1.6-.75-1.52-1.67.08-.92.89-1.67 1.82-1.67h1.89c.92 0 1.6.75 1.52 1.67-.08.92-.9 1.67-1.82 1.67zM418.24 188.94h-8.86c-.92 0-1.6-.75-1.52-1.67.08-.92.89-1.67 1.82-1.67h8.86c.92 0 1.6.75 1.52 1.67-.08.92-.9 1.67-1.82 1.67zM432.47 188.94h-1.89c-.92 0-1.6-.75-1.52-1.67.08-.92.89-1.67 1.82-1.67h1.89c.92 0 1.6.75 1.52 1.67-.09.92-.9 1.67-1.82 1.67zM421.18 195.14h-12.34c-.92 0-1.6-.75-1.52-1.67.08-.92.89-1.67 1.82-1.67h12.34c.92 0 1.6.75 1.52 1.67-.08.93-.9 1.67-1.82 1.67zM431.93 195.14h-1.89c-.92 0-1.6-.75-1.52-1.67.08-.92.89-1.67 1.82-1.67h1.89c.92 0 1.6.75 1.52 1.67-.09.93-.9 1.67-1.82 1.67zM417.15 201.35h-8.86c-.92 0-1.6-.75-1.52-1.67.08-.92.89-1.67 1.82-1.67h8.86c.92 0 1.6.75 1.52 1.67-.08.92-.89 1.67-1.82 1.67zM429.09 207.22h-21.31c-.92 0-1.6-.75-1.52-1.67.08-.92.89-1.67 1.82-1.67h21.31c.92 0 1.6.75 1.52 1.67-.08.93-.9 1.67-1.82 1.67zM431.38 201.35h-1.89c-.92 0-1.6-.75-1.52-1.67.08-.92.89-1.67 1.82-1.67h1.89c.92 0 1.6.75 1.52 1.67-.08.92-.89 1.67-1.82 1.67zM430.36 213.1h-1.89c-.92 0-1.6-.75-1.52-1.67.08-.92.89-1.67 1.82-1.67h1.89c.92 0 1.6.75 1.52 1.67-.09.92-.9 1.67-1.82 1.67z"/></g></g></g></g><g><path class="st2" d="M426.36 100.83h-6.3l-4.95 56.63h6.3c1.99 0 3.75-1.62 3.92-3.61l4.32-49.41c.17-2-1.3-3.61-3.29-3.61z"/><path class="st26" d="M419.66 157.45h-34.9c-1.99 0-3.47-1.62-3.29-3.61l4.32-49.41c.17-1.99 1.93-3.61 3.92-3.61h34.9c1.99 0 3.47 1.62 3.29 3.61l-4.32 49.41c-.17 2-1.93 3.61-3.92 3.61z"/><path class="st6" d="M419.66 157.45h-34.9c-1.99 0-3.47-1.62-3.29-3.61l4.32-49.41c.17-1.99 1.93-3.61 3.92-3.61h34.9c1.99 0 3.47 1.62 3.29 3.61l-4.32 49.41c-.17 2-1.93 3.61-3.92 3.61z"/><g><path class="st0" d="M422.49 116.29h-33.1l.78-8.93h33.1z"/><path class="st4" d="M422.39 124.47c-.14 1.6-1.55 2.9-3.16 2.9-1.6 0-2.79-1.3-2.65-2.9.14-1.6 1.55-2.9 3.16-2.9s2.79 1.3 2.65 2.9zM421.6 133.5c-.14 1.6-1.55 2.9-3.16 2.9-1.6 0-2.79-1.3-2.65-2.9.14-1.6 1.55-2.9 3.16-2.9s2.79 1.3 2.65 2.9zM420.81 142.53c-.14 1.6-1.55 2.9-3.16 2.9-1.6 0-2.79-1.3-2.65-2.9.14-1.6 1.55-2.9 3.16-2.9 1.61-.01 2.8 1.29 2.65 2.9z"/><path class="st2" d="M393.61 124.47c-.14 1.6-1.55 2.9-3.16 2.9-1.6 0-2.79-1.3-2.65-2.9.14-1.6 1.55-2.9 3.16-2.9 1.6 0 2.79 1.3 2.65 2.9zM403.2 124.47c-.14 1.6-1.55 2.9-3.16 2.9-1.6 0-2.79-1.3-2.65-2.9.14-1.6 1.55-2.9 3.16-2.9s2.79 1.3 2.65 2.9zM412.8 124.47c-.14 1.6-1.55 2.9-3.16 2.9s-2.79-1.3-2.65-2.9c.14-1.6 1.55-2.9 3.16-2.9 1.6 0 2.79 1.3 2.65 2.9zM392.82 133.5c-.14 1.6-1.55 2.9-3.16 2.9-1.6 0-2.79-1.3-2.65-2.9.14-1.6 1.55-2.9 3.16-2.9 1.6 0 2.79 1.3 2.65 2.9zM402.41 133.5c-.14 1.6-1.55 2.9-3.16 2.9-1.6 0-2.79-1.3-2.65-2.9.14-1.6 1.55-2.9 3.16-2.9s2.79 1.3 2.65 2.9zM412.01 133.5c-.14 1.6-1.55 2.9-3.16 2.9-1.6 0-2.79-1.3-2.65-2.9.14-1.6 1.55-2.9 3.16-2.9 1.6 0 2.79 1.3 2.65 2.9zM392.03 142.53c-.14 1.6-1.55 2.9-3.16 2.9s-2.79-1.3-2.65-2.9c.14-1.6 1.55-2.9 3.16-2.9 1.6-.01 2.79 1.29 2.65 2.9zM401.62 142.53c-.14 1.6-1.55 2.9-3.16 2.9-1.6 0-2.79-1.3-2.65-2.9.14-1.6 1.55-2.9 3.16-2.9 1.61-.01 2.79 1.29 2.65 2.9zM411.22 142.53c-.14 1.6-1.55 2.9-3.16 2.9-1.6 0-2.79-1.3-2.65-2.9.14-1.6 1.55-2.9 3.16-2.9 1.6-.01 2.79 1.29 2.65 2.9zM391.24 151.56c-.14 1.6-1.55 2.9-3.16 2.9-1.6 0-2.79-1.3-2.65-2.9.14-1.6 1.55-2.9 3.16-2.9 1.6-.01 2.79 1.29 2.65 2.9zM400.83 151.56c-.14 1.6-1.55 2.9-3.16 2.9-1.6 0-2.79-1.3-2.65-2.9.14-1.6 1.55-2.9 3.16-2.9 1.61-.01 2.79 1.29 2.65 2.9zM410.43 151.56c-.14 1.6-1.55 2.9-3.16 2.9-1.6 0-2.79-1.3-2.65-2.9.14-1.6 1.55-2.9 3.16-2.9 1.6-.01 2.79 1.29 2.65 2.9z"/><g class="st16"><path d="M393.61 124.47c-.14 1.6-1.55 2.9-3.16 2.9-1.6 0-2.79-1.3-2.65-2.9.14-1.6 1.55-2.9 3.16-2.9 1.6 0 2.79 1.3 2.65 2.9zM403.2 124.47c-.14 1.6-1.55 2.9-3.16 2.9-1.6 0-2.79-1.3-2.65-2.9.14-1.6 1.55-2.9 3.16-2.9s2.79 1.3 2.65 2.9zM412.8 124.47c-.14 1.6-1.55 2.9-3.16 2.9s-2.79-1.3-2.65-2.9c.14-1.6 1.55-2.9 3.16-2.9 1.6 0 2.79 1.3 2.65 2.9zM392.82 133.5c-.14 1.6-1.55 2.9-3.16 2.9-1.6 0-2.79-1.3-2.65-2.9.14-1.6 1.55-2.9 3.16-2.9 1.6 0 2.79 1.3 2.65 2.9zM402.41 133.5c-.14 1.6-1.55 2.9-3.16 2.9-1.6 0-2.79-1.3-2.65-2.9.14-1.6 1.55-2.9 3.16-2.9s2.79 1.3 2.65 2.9zM412.01 133.5c-.14 1.6-1.55 2.9-3.16 2.9-1.6 0-2.79-1.3-2.65-2.9.14-1.6 1.55-2.9 3.16-2.9 1.6 0 2.79 1.3 2.65 2.9zM392.03 142.53c-.14 1.6-1.55 2.9-3.16 2.9s-2.79-1.3-2.65-2.9c.14-1.6 1.55-2.9 3.16-2.9 1.6-.01 2.79 1.29 2.65 2.9zM401.62 142.53c-.14 1.6-1.55 2.9-3.16 2.9-1.6 0-2.79-1.3-2.65-2.9.14-1.6 1.55-2.9 3.16-2.9 1.61-.01 2.79 1.29 2.65 2.9zM411.22 142.53c-.14 1.6-1.55 2.9-3.16 2.9-1.6 0-2.79-1.3-2.65-2.9.14-1.6 1.55-2.9 3.16-2.9 1.6-.01 2.79 1.29 2.65 2.9zM391.24 151.56c-.14 1.6-1.55 2.9-3.16 2.9-1.6 0-2.79-1.3-2.65-2.9.14-1.6 1.55-2.9 3.16-2.9 1.6-.01 2.79 1.29 2.65 2.9zM400.83 151.56c-.14 1.6-1.55 2.9-3.16 2.9-1.6 0-2.79-1.3-2.65-2.9.14-1.6 1.55-2.9 3.16-2.9 1.61-.01 2.79 1.29 2.65 2.9zM410.43 151.56c-.14 1.6-1.55 2.9-3.16 2.9-1.6 0-2.79-1.3-2.65-2.9.14-1.6 1.55-2.9 3.16-2.9 1.6-.01 2.79 1.29 2.65 2.9z"/></g><path class="st4" d="M420.03 151.56c-.14 1.6-1.55 2.9-3.16 2.9-1.6 0-2.79-1.3-2.65-2.9.14-1.6 1.55-2.9 3.16-2.9 1.6-.01 2.79 1.29 2.65 2.9z"/></g></g><g><path d="M367.72 121.39l-3.14 35.89c3.22-.7 5.83-3.52 6.12-6.88l1.94-22.12c.29-3.37-1.82-6.19-4.92-6.89z" fill="#00738b"/><path class="st29" d="M362.16 157.45h-43.38c-3.9 0-6.78-3.16-6.44-7.06l1.94-22.12c.34-3.9 3.78-7.06 7.67-7.06h43.38c3.9 0 6.78 3.16 6.44 7.06l-1.94 22.12c-.34 3.91-3.78 7.06-7.67 7.06z"/><path class="st6" d="M362.06 157.45h-43.38c-3.9 0-6.78-3.16-6.44-7.06l1.94-22.12c.34-3.9 3.78-7.06 7.67-7.06h43.38c3.9 0 6.78 3.16 6.44 7.06l-1.94 22.12c-.34 3.91-3.78 7.06-7.67 7.06z"/><path class="st2" d="M313.72 134.58h57.49l.51-5.81h-57.49z"/><path class="st4" d="M322.6 152.58h-5.52l.23-2.61h5.51zM331.6 152.58h-5.52l.23-2.61h5.52z"/></g><g><path class="st19" d="M296.69 308.14c8.69 3.04 11.28 15.42 4.45 27.18-6.83 11.76-18.91 15.71-25.9 9.74-6.03-5.15-6.11-16.14-.89-25.13 5.24-9 14.84-14.41 22.34-11.79z"/><path class="st19" d="M293.58 307.05c8.19 2.87 10.45 14.76 3.84 26.13-6.61 11.38-18.09 15.36-24.68 9.74-5.71-4.87-5.67-15.48-.58-24.26 5.1-8.76 14.32-14.09 21.42-11.61z"/><path class="st31" d="M293.58 307.05c8.19 2.87 10.45 14.76 3.84 26.13-6.61 11.38-18.09 15.36-24.68 9.74-5.71-4.87-5.67-15.48-.58-24.26 5.1-8.76 14.32-14.09 21.42-11.61z"/><path class="st19" d="M290.73 311.45c.35.14.69.31 1 .48.01.04.06.02.08.03 4.93 3 5.81 11.17 1.39 18.79-4.44 7.65-12 10.97-17.07 8.22-.02-.02-.03-.07-.07-.06-.3-.19-.62-.39-.92-.63-4.45-3.47-4.57-11.53-.65-18.29 3.92-6.73 11-10.65 16.24-8.54z"/><path class="st32" d="M291.74 311.93c.01.04.06.02.08.03 4.93 3 5.81 11.17 1.39 18.79-4.44 7.65-12 10.97-17.07 8.22-.02-.02-.03-.07-.07-.06-3.71-3.96-3.62-11.53.11-17.95 3.71-6.39 10.26-10.25 15.56-9.03z"/><path class="st19" d="M227.97 299.12h43.69v7.01h-43.69z"/><path class="st1" d="M227.97 299.12h43.69v7.01h-43.69z"/><path class="st14" d="M268.81 299.12l-40.84 7.01h43.7v-7.01z"/><path class="st19" d="M270.73 299.12h.93v7.01h-.93zM266.85 299.12h.93v7.01h-.93zM262.96 299.12h.93v7.01h-.93zM259.07 299.12h.93v7.01h-.93zM255.19 299.12h.93v7.01h-.93zM251.3 299.12h.93v7.01h-.93zM247.41 299.12h.93v7.01h-.93zM243.52 299.12h.93v7.01h-.93zM239.64 299.12h.93v7.01h-.93zM235.75 299.12h.93v7.01h-.93zM231.86 299.12h.93v7.01h-.93zM227.97 299.12h.93v7.01h-.93z"/><path class="st19" d="M227.97 305.2h43.69v.93h-43.69z"/><g><path class="st19" d="M230.78 306.13h43.69v7.01h-43.69z"/><path class="st1" d="M230.78 306.13h43.69v7.01h-43.69z"/><path class="st14" d="M271.61 306.13l-40.83 7.01h43.69v-7.01z"/><path class="st19" d="M273.54 306.13h.93v7.01h-.93zM269.65 306.13h.93v7.01h-.93zM265.76 306.13h.93v7.01h-.93zM261.88 306.13h.93v7.01h-.93zM257.99 306.13h.93v7.01h-.93zM254.1 306.13h.93v7.01h-.93zM250.21 306.13h.93v7.01h-.93zM246.33 306.13h.93v7.01h-.93zM242.44 306.13h.93v7.01h-.93zM238.55 306.13h.93v7.01h-.93zM234.67 306.13h.93v7.01h-.93zM230.78 306.13h.93v7.01h-.93z"/><g><path class="st19" d="M230.78 312.21h43.69v.93h-43.69z"/></g></g><g><path class="st19" d="M236.39 313.14h43.69v7.01h-43.69z"/><path class="st1" d="M236.39 313.14h43.69v7.01h-43.69z"/><path class="st14" d="M277.22 313.14l-40.83 7.01h43.69v-7.01z"/><path class="st19" d="M279.15 313.14h.93v7.01h-.93zM275.26 313.14h.93v7.01h-.93zM271.37 313.14h.93v7.01h-.93zM267.48 313.14h.93v7.01h-.93zM263.6 313.14h.93v7.01h-.93zM259.71 313.14h.93v7.01h-.93zM255.82 313.14h.93v7.01h-.93zM251.94 313.14h.93v7.01h-.93zM248.05 313.14h.93v7.01h-.93zM244.16 313.14h.93v7.01h-.93zM240.27 313.14h.93v7.01h-.93zM236.39 313.14h.93v7.01h-.93z"/><g><path class="st19" d="M236.39 319.22h43.69v.93h-43.69z"/></g></g><g><path class="st19" d="M230.78 320.15h43.69v7.01h-43.69z"/><path class="st1" d="M230.78 320.15h43.69v7.01h-43.69z"/><path class="st14" d="M271.61 320.15l-40.83 7.01h43.69v-7.01z"/><path class="st19" d="M273.54 320.15h.93v7.01h-.93zM269.65 320.15h.93v7.01h-.93zM265.76 320.15h.93v7.01h-.93zM261.88 320.15h.93v7.01h-.93zM257.99 320.15h.93v7.01h-.93zM254.1 320.15h.93v7.01h-.93zM250.21 320.15h.93v7.01h-.93zM246.33 320.15h.93v7.01h-.93zM242.44 320.15h.93v7.01h-.93zM238.55 320.15h.93v7.01h-.93zM234.67 320.15h.93v7.01h-.93zM230.78 320.15h.93v7.01h-.93z"/><g><path class="st19" d="M230.78 326.23h43.69v.93h-43.69z"/></g></g><g><path class="st19" d="M234.52 327.16h43.69v7.01h-43.69z"/><path class="st1" d="M234.52 327.16h43.69v7.01h-43.69z"/><path class="st14" d="M275.35 327.16l-40.83 7.01h43.69v-7.01z"/><path class="st19" d="M277.28 327.16h.93v7.01h-.93zM273.39 327.16h.93v7.01h-.93zM269.5 327.16h.93v7.01h-.93zM265.61 327.16h.93v7.01h-.93zM261.73 327.16h.93v7.01h-.93zM257.84 327.16h.93v7.01h-.93zM253.95 327.16h.93v7.01h-.93zM250.07 327.16h.93v7.01h-.93zM246.18 327.16h.93v7.01h-.93zM242.29 327.16h.93v7.01h-.93zM238.4 327.16h.93v7.01h-.93zM234.52 327.16h.93v7.01h-.93z"/><g><path class="st19" d="M234.52 333.24h43.69v.93h-43.69z"/></g></g><g><path class="st19" d="M233.58 334.17h43.69v7.01h-43.69z"/><path class="st1" d="M233.58 334.17h43.69v7.01h-43.69z"/><path class="st14" d="M274.42 334.17l-40.84 7.01h43.7v-7.01z"/><path class="st19" d="M276.34 334.17h.93v7.01h-.93zM272.45 334.17h.93v7.01h-.93zM268.57 334.17h.93v7.01h-.93zM264.68 334.17h.93v7.01h-.93zM260.79 334.17h.93v7.01h-.93zM256.91 334.17h.93v7.01h-.93zM253.02 334.17h.93v7.01h-.93zM249.13 334.17h.93v7.01h-.93zM245.24 334.17h.93v7.01h-.93zM241.36 334.17h.93v7.01h-.93zM237.47 334.17h.93v7.01h-.93zM233.58 334.17h.93v7.01h-.93z"/><g><path class="st19" d="M233.58 340.25h43.69v.93h-43.69z"/></g></g><g><path class="st19" d="M230.78 341.18h43.69v7.01h-43.69z"/><path class="st1" d="M230.78 341.18h43.69v7.01h-43.69z"/><path class="st14" d="M271.61 341.18l-40.83 7.01h43.69v-7.01z"/><path class="st19" d="M273.54 341.18h.93v7.01h-.93zM269.65 341.18h.93v7.01h-.93zM265.76 341.18h.93v7.01h-.93zM261.88 341.18h.93v7.01h-.93zM257.99 341.18h.93v7.01h-.93zM254.1 341.18h.93v7.01h-.93zM250.21 341.18h.93v7.01h-.93zM246.33 341.18h.93v7.01h-.93zM242.44 341.18h.93v7.01h-.93zM238.55 341.18h.93v7.01h-.93zM234.67 341.18h.93v7.01h-.93zM230.78 341.18h.93v7.01h-.93z"/><g><path class="st19" d="M230.78 347.26h43.69v.93h-43.69z"/></g></g><g><path class="st19" d="M336.91 319.82h43.69v7.01h-43.69z"/><path class="st1" d="M336.91 319.82h43.69v7.01h-43.69z"/><path class="st14" d="M377.74 319.82l-40.83 7.01h43.69v-7.01z"/><path class="st19" d="M379.67 319.82h.93v7.01h-.93zM375.78 319.82h.93v7.01h-.93zM371.89 319.82h.93v7.01h-.93zM368 319.82h.93v7.01H368zM364.12 319.82h.93v7.01h-.93zM360.23 319.82h.93v7.01h-.93zM356.34 319.82h.93v7.01h-.93zM352.46 319.82h.93v7.01h-.93zM348.57 319.82h.93v7.01h-.93zM344.68 319.82h.93v7.01h-.93zM340.79 319.82h.93v7.01h-.93zM336.91 319.82h.93v7.01h-.93z"/><g><path class="st19" d="M336.91 325.89h43.69v.93h-43.69z"/></g></g><g><path class="st19" d="M334.1 326.83h43.69v7.01H334.1z"/><path class="st1" d="M334.1 326.83h43.69v7.01H334.1z"/><path class="st14" d="M374.94 326.83l-40.84 7.01h43.7v-7.01z"/><path class="st19" d="M376.86 326.83h.93v7.01h-.93zM372.97 326.83h.93v7.01h-.93zM369.09 326.83h.93v7.01h-.93zM365.2 326.83h.93v7.01h-.93zM361.31 326.83h.93v7.01h-.93zM357.43 326.83h.93v7.01h-.93zM353.54 326.83h.93v7.01h-.93zM349.65 326.83h.93v7.01h-.93zM345.76 326.83h.93v7.01h-.93zM341.88 326.83h.93v7.01h-.93zM337.99 326.83h.93v7.01h-.93zM334.1 326.83h.93v7.01h-.93z"/><g><path class="st19" d="M334.1 332.9h43.69v.93H334.1z"/></g></g><g><path class="st19" d="M336.91 333.84h43.69v7.01h-43.69z"/><path class="st1" d="M336.91 333.84h43.69v7.01h-43.69z"/><path class="st14" d="M377.74 333.84l-40.83 7.01h43.69v-7.01z"/><path class="st19" d="M379.67 333.84h.93v7.01h-.93zM375.78 333.84h.93v7.01h-.93zM371.89 333.84h.93v7.01h-.93zM368 333.84h.93v7.01H368zM364.12 333.84h.93v7.01h-.93zM360.23 333.84h.93v7.01h-.93zM356.34 333.84h.93v7.01h-.93zM352.46 333.84h.93v7.01h-.93zM348.57 333.84h.93v7.01h-.93zM344.68 333.84h.93v7.01h-.93zM340.79 333.84h.93v7.01h-.93zM336.91 333.84h.93v7.01h-.93z"/><g><path class="st19" d="M336.91 339.91h43.69v.93h-43.69z"/></g></g><g><path class="st19" d="M332.23 340.85h43.69v7.01h-43.69z"/><path class="st1" d="M332.23 340.85h43.69v7.01h-43.69z"/><path class="st14" d="M373.07 340.85l-40.84 7.01h43.7v-7.01z"/><path class="st19" d="M374.99 340.85h.93v7.01h-.93zM371.11 340.85h.93v7.01h-.93zM367.22 340.85h.93v7.01h-.93zM363.33 340.85h.93v7.01h-.93zM359.44 340.85h.93v7.01h-.93zM355.56 340.85h.93v7.01h-.93zM351.67 340.85h.93v7.01h-.93zM347.78 340.85h.93v7.01h-.93zM343.9 340.85h.93v7.01h-.93zM340.01 340.85h.93v7.01h-.93zM336.12 340.85h.93v7.01h-.93zM332.23 340.85h.93v7.01h-.93z"/><g><path class="st19" d="M332.23 346.92h43.69v.93h-43.69z"/></g></g><g><path class="st19" d="M283.45 299.12h43.69v7.01h-43.69z"/><path class="st1" d="M283.45 299.12h43.69v7.01h-43.69z"/><path class="st14" d="M324.28 299.12l-40.83 7.01h43.69v-7.01z"/><path class="st19" d="M326.21 299.12h.93v7.01h-.93zM322.32 299.12h.93v7.01h-.93zM318.43 299.12h.93v7.01h-.93zM314.55 299.12h.93v7.01h-.93zM310.66 299.12h.93v7.01h-.93zM306.77 299.12h.93v7.01h-.93zM302.88 299.12h.93v7.01h-.93zM299 299.12h.93v7.01H299zM295.11 299.12h.93v7.01h-.93zM291.22 299.12h.93v7.01h-.93zM287.34 299.12h.93v7.01h-.93zM283.45 299.12h.93v7.01h-.93z"/><g><path class="st19" d="M283.45 305.2h43.69v.93h-43.69z"/></g></g><g><path class="st19" d="M286.25 306.13h43.69v7.01h-43.69z"/><path class="st1" d="M286.25 306.13h43.69v7.01h-43.69z"/><path class="st14" d="M327.09 306.13l-40.84 7.01h43.7v-7.01z"/><path class="st19" d="M329.01 306.13h.93v7.01h-.93zM325.12 306.13h.93v7.01h-.93zM321.24 306.13h.93v7.01h-.93zM317.35 306.13h.93v7.01h-.93zM313.46 306.13h.93v7.01h-.93zM309.58 306.13h.93v7.01h-.93zM305.69 306.13h.93v7.01h-.93zM301.8 306.13h.93v7.01h-.93zM297.91 306.13h.93v7.01h-.93zM294.03 306.13h.93v7.01h-.93zM290.14 306.13h.93v7.01h-.93zM286.25 306.13h.93v7.01h-.93z"/><g><path class="st19" d="M286.25 312.21h43.69v.93h-43.69z"/></g></g><g><path class="st19" d="M287.19 313.14h43.69v7.01h-43.69z"/><path class="st1" d="M287.19 313.14h43.69v7.01h-43.69z"/><path class="st14" d="M328.02 313.14l-40.83 7.01h43.69v-7.01z"/><path class="st19" d="M329.95 313.14h.93v7.01h-.93zM326.06 313.14h.93v7.01h-.93zM322.17 313.14h.93v7.01h-.93zM318.28 313.14h.93v7.01h-.93zM314.4 313.14h.93v7.01h-.93zM310.51 313.14h.93v7.01h-.93zM306.62 313.14h.93v7.01h-.93zM302.74 313.14h.93v7.01h-.93zM298.85 313.14h.93v7.01h-.93zM294.96 313.14h.93v7.01h-.93zM291.07 313.14h.93v7.01h-.93zM287.19 313.14h.93v7.01h-.93z"/><g><path class="st19" d="M287.19 319.22h43.69v.93h-43.69z"/></g></g><g><path class="st19" d="M286.25 320.15h43.69v7.01h-43.69z"/><path class="st1" d="M286.25 320.15h43.69v7.01h-43.69z"/><path class="st14" d="M327.09 320.15l-40.84 7.01h43.7v-7.01z"/><path class="st19" d="M329.01 320.15h.93v7.01h-.93zM325.12 320.15h.93v7.01h-.93zM321.24 320.15h.93v7.01h-.93zM317.35 320.15h.93v7.01h-.93zM313.46 320.15h.93v7.01h-.93zM309.58 320.15h.93v7.01h-.93zM305.69 320.15h.93v7.01h-.93zM301.8 320.15h.93v7.01h-.93zM297.91 320.15h.93v7.01h-.93zM294.03 320.15h.93v7.01h-.93zM290.14 320.15h.93v7.01h-.93zM286.25 320.15h.93v7.01h-.93z"/><g><path class="st19" d="M286.25 326.23h43.69v.93h-43.69z"/></g></g><g><path class="st19" d="M287.19 327.16h43.69v7.01h-43.69z"/><path class="st1" d="M287.19 327.16h43.69v7.01h-43.69z"/><path class="st14" d="M328.02 327.16l-40.83 7.01h43.69v-7.01z"/><path class="st19" d="M329.95 327.16h.93v7.01h-.93zM326.06 327.16h.93v7.01h-.93zM322.17 327.16h.93v7.01h-.93zM318.28 327.16h.93v7.01h-.93zM314.4 327.16h.93v7.01h-.93zM310.51 327.16h.93v7.01h-.93zM306.62 327.16h.93v7.01h-.93zM302.74 327.16h.93v7.01h-.93zM298.85 327.16h.93v7.01h-.93zM294.96 327.16h.93v7.01h-.93zM291.07 327.16h.93v7.01h-.93zM287.19 327.16h.93v7.01h-.93z"/><g><path class="st19" d="M287.19 333.24h43.69v.93h-43.69z"/></g></g><g><path class="st19" d="M285.32 334.17h43.69v7.01h-43.69z"/><path class="st1" d="M285.32 334.17h43.69v7.01h-43.69z"/><path class="st14" d="M326.15 334.17l-40.83 7.01h43.69v-7.01z"/><path class="st19" d="M328.08 334.17h.93v7.01h-.93zM324.19 334.17h.93v7.01h-.93zM320.3 334.17h.93v7.01h-.93zM316.42 334.17h.93v7.01h-.93zM312.53 334.17h.93v7.01h-.93zM308.64 334.17h.93v7.01h-.93zM304.75 334.17h.93v7.01h-.93zM300.87 334.17h.93v7.01h-.93zM296.98 334.17h.93v7.01h-.93zM293.09 334.17h.93v7.01h-.93zM289.2 334.17h.93v7.01h-.93zM285.32 334.17h.93v7.01h-.93z"/><g><path class="st19" d="M285.32 340.25h43.69v.93h-43.69z"/></g></g><g><path class="st19" d="M286.25 341.18h43.69v7.01h-43.69z"/><path class="st1" d="M286.25 341.18h43.69v7.01h-43.69z"/><path class="st14" d="M327.09 341.18l-40.84 7.01h43.7v-7.01z"/><path class="st19" d="M329.01 341.18h.93v7.01h-.93zM325.12 341.18h.93v7.01h-.93zM321.24 341.18h.93v7.01h-.93zM317.35 341.18h.93v7.01h-.93zM313.46 341.18h.93v7.01h-.93zM309.58 341.18h.93v7.01h-.93zM305.69 341.18h.93v7.01h-.93zM301.8 341.18h.93v7.01h-.93zM297.91 341.18h.93v7.01h-.93zM294.03 341.18h.93v7.01h-.93zM290.14 341.18h.93v7.01h-.93zM286.25 341.18h.93v7.01h-.93z"/><g><path class="st19" d="M286.25 347.26h43.69v.93h-43.69z"/></g></g><g><path class="st19" d="M221.16 345.19c-10.71-4.73-15.56-17.24-10.83-27.95s17.24-15.56 27.95-10.83 15.56 17.24 10.83 27.95-17.24 15.56-27.95 10.83z"/><path class="st19" d="M220.13 347.52c-10.71-4.73-15.56-17.24-10.83-27.95s17.24-15.56 27.95-10.83 15.56 17.24 10.83 27.95-17.24 15.56-27.95 10.83z"/><path class="st31" d="M220.13 347.52c-10.71-4.73-15.56-17.24-10.83-27.95s17.24-15.56 27.95-10.83 15.56 17.24 10.83 27.95-17.24 15.56-27.95 10.83z"/><path class="st19" d="M243.2 334.54c-.24.54-.51 1.07-.81 1.58-4 6.9-12.63 9.84-20.11 6.52-8.01-3.53-11.65-12.9-8.1-20.92.53-1.18 1.18-2.28 1.94-3.26 4.33-5.67 12.15-7.84 18.98-4.84 8.01 3.53 11.65 12.89 8.1 20.92z"/><path class="st32" d="M243.2 334.54c-.24.54-.51 1.07-.81 1.58-4.37 5.6-12.12 7.75-18.91 4.75-8.02-3.53-11.65-12.9-8.11-20.92.24-.51.47-1.01.76-1.49 4.33-5.67 12.15-7.84 18.98-4.84 8 3.53 11.64 12.89 8.09 20.92z"/><g class="st13"><path class="st4" d="M222.79 333.14c-3.46-.85-4.63-4.01-3.21-8.13l-2.63-1.24 1.06-2.41 2.63 1.24c1.25-2.23 2.92-4.07 4.45-5.05l2.51 2.41a12.11 12.11 0 00-3.86 4.1l4.03 1.91c1.72-2.06 3.77-4.29 6.91-3.51 3.46.85 4.63 4.06 3.14 8.24l2.62 1.24-1.06 2.41-2.65-1.24c-.94 1.67-2.15 3.11-3.44 4.07l-2.57-2.27c1.21-.85 2.21-2 2.94-3.26l-4.2-1.98c-1.69 2.05-3.68 4.21-6.67 3.47zm8.4-5.58l3.43 1.62c.32-1.45-.14-2.42-1.12-2.68-.81-.2-1.54.29-2.31 1.06zm-7.35 1.5c.75.19 1.47-.25 2.18-1.01l-3.27-1.53c-.3 1.37.1 2.3 1.09 2.54z"/></g></g><g><path class="st19" d="M343 348.96c-.18-.02-.39-.09-.59-.15-3.82-1.27-9.62-7.23-14.57-15.35-4.94-8.14-7.56-16.04-6.92-20.03v-.02c.13-.79.38-1.4.78-1.85.02-.04.04-.06.06-.08.14-.16.29-.3.47-.4.21-.12.41-.2.61-.26.57-.14 1.25-.09 2 .17.71.21 1.5.61 2.33 1.15.55.35 1.11.77 1.7 1.24.32.27.67.56 1.01.87 3.07 2.75 6.51 7.01 9.63 12.13 3.1 5.1 5.29 10.08 6.32 14.09.12.45.21.9.31 1.33.17.82.29 1.55.34 2.25.09.98.06 1.84-.09 2.55-.15.81-.45 1.44-.9 1.85-.1.12-.23.22-.37.3-.12.08-.27.14-.41.18-.49.17-1.06.18-1.71.03z"/><path class="st19" d="M343 348.96l-.32-.51-10.69-17.59c-.28-.47-.56-.92-.82-1.38l-9.99-16.42v-.02c.09-.59.26-1.08.51-1.48.08-.16.21-.3.33-.44l1.09-.66 3.27-1.98 1.48 2.42.26.43 1.02 1.68.74 1.23 15.95 26.22.58.97 1.12 1.85.26.43 1.48 2.42-3.78 2.3-.78.48c-.49.19-1.06.2-1.71.05z"/><path class="st19" d="M326.39 308.48c-3.22 1.96-.71 11.98 5.61 22.38 6.32 10.4 14.05 17.25 17.28 15.29 3.22-1.96.71-11.98-5.61-22.38-6.33-10.4-14.06-17.24-17.28-15.29z"/><path class="st31" d="M326.39 308.48c-3.22 1.96-.71 11.98 5.61 22.38 6.32 10.4 14.05 17.25 17.28 15.29 3.22-1.96.71-11.98-5.61-22.38-6.33-10.4-14.06-17.24-17.28-15.29z"/><g><path class="st19" d="M328.07 310.74c-.19.11-.37.32-.46.52 2.68 0 8.3 5.95 13.3 14.18 5.01 8.25 7.7 15.98 6.45 18.34.22.02.49-.05.67-.16 2.18-1.33-.48-9.77-6-18.86-5.5-9.07-11.78-15.34-13.96-14.02z"/><path class="st33" d="M328.07 310.74c-.19.11-.37.32-.46.52 2.68 0 8.3 5.95 13.3 14.18 5.01 8.25 7.7 15.98 6.45 18.34.22.02.49-.05.67-.16 2.18-1.33-.48-9.77-6-18.86-5.5-9.07-11.78-15.34-13.96-14.02z"/></g><g><path class="st33" d="M327.61 311.26c-1.23 2.38 1.45 10.11 6.45 18.34 5.01 8.25 10.63 14.2 13.3 14.18 1.25-2.36-1.44-10.08-6.45-18.34-5-8.23-10.62-14.17-13.3-14.18z"/></g></g></g><g><path class="st12" d="M255.58 299.97c2.29.26 5.07.21 7.56-.4 1.7-.41 2.98-1.6 3.38-3.01l2.44-8.49c-.97-2.3-11.83-4.42-18.79 0 0 0 .73 5.61 1.33 7.92.66 2.57 1.64 3.71 4.08 3.98z"/><path class="st34" d="M255.58 299.97c2.29.26 5.07.21 7.56-.4 1.7-.41 2.98-1.6 3.38-3.01l2.44-8.49c-.97-2.3-11.83-4.42-18.79 0 0 0 .73 5.61 1.33 7.92.66 2.57 1.64 3.71 4.08 3.98z"/><path class="st12" d="M302.13 298.55c1.88.08 4.13-.17 6.07-.95 1.32-.54 2.2-1.81 2.35-3.23l1.08-10.57c-1.77-1.52-12.71-1.58-15.23 3.65 0 0 .65 2.39 1.92 7.47.86 3.47 1.81 3.54 3.81 3.63z"/><path class="st34" d="M302.13 298.55c1.88.08 4.13-.17 6.07-.95 1.32-.54 2.2-1.81 2.35-3.23l1.08-10.57c-1.77-1.52-12.71-1.58-15.23 3.65 0 0 .65 2.39 1.92 7.47.86 3.47 1.81 3.54 3.81 3.63z"/><path class="st29" d="M304.96 216.84c3.91.96 7.34 2.98 9.47 6.3 1.23-2.77 2.11-5.66 2.63-8.6.25-1.38.37-2.92-.45-3.99-1.01-1.32-3.12-1.37-4.7-.59-1.58.78-2.75 2.2-3.87 3.57-.85 1.05-1.99 2.51-3.08 3.31z"/><path class="st31" d="M304.96 216.84c3.91.96 7.34 2.98 9.47 6.3 1.23-2.77 2.11-5.66 2.63-8.6.25-1.38.37-2.92-.45-3.99-1.01-1.32-3.12-1.37-4.7-.59-1.58.78-2.75 2.2-3.87 3.57-.85 1.05-1.99 2.51-3.08 3.31z"/><path class="st29" d="M315.82 209.87s-3.82-.27-7.44 4.96c0 0-1.28-1.98-2.83-2.45 0 0 6.57-5.18 10.27-2.51z"/><path class="st32" d="M315.82 209.87s-3.82-.27-7.44 4.96c0 0-1.28-1.98-2.83-2.45 0 0 6.57-5.18 10.27-2.51z"/><path class="st12" d="M289.19 208.2h-27.73c-23.28 0-42.15 18.87-42.15 42.15 0 23.28 18.87 42.15 42.15 42.15h27.73c23.28 0 42.15-18.87 42.15-42.15-.01-23.28-18.88-42.15-42.15-42.15z"/><path class="st14" d="M317.54 247.13h-6.48c-5.44 0-9.84 4.41-9.84 9.84 0 5.44 4.41 9.84 9.84 9.84h6.48c5.44 0 9.84-4.41 9.84-9.84.01-5.43-4.4-9.84-9.84-9.84z"/><path class="st16" d="M314.95 256.98c0 2.06-1.05 3.74-2.34 3.74-1.29 0-2.34-1.67-2.34-3.74 0-2.06 1.05-3.74 2.34-3.74 1.3 0 2.34 1.67 2.34 3.74zM323.95 256.98c0 2.06-1.05 3.74-2.34 3.74-1.29 0-2.34-1.67-2.34-3.74 0-2.06 1.05-3.74 2.34-3.74 1.3 0 2.34 1.67 2.34 3.74z"/><path class="st13" d="M301.71 235.97c.37 1.72-.07 3.28-1.79 3.64-1.72.37-2.75-.88-3.12-2.6-.37-1.72.07-3.28 1.79-3.64 1.73-.37 2.76.87 3.12 2.6zM324.36 237.01c-.37 1.72-1.39 2.97-3.12 2.6-1.72-.37-2.16-1.92-1.79-3.64.37-1.72 1.39-2.97 3.12-2.6s2.16 1.92 1.79 3.64zM310.19 270.23c-.54.06-7.29-.83-9.98-2.88-2.7-2.05-.46 2.49 5.87 3.26 2.58.31 4.11-.38 4.11-.38z"/><path class="st29" d="M283.03 205.8s-4.55.41-6.14 5.92c-1.58 5.51 5.19 13.27 5.19 13.27s-5.14-7.17.95-19.19z"/><path class="st32" d="M283.03 205.8s-4.55.41-6.14 5.92c-1.58 5.51 5.19 13.27 5.19 13.27s-5.14-7.17.95-19.19z"/><path class="st29" d="M282.33 223.36c.83-5.03 4.14-9.5 8.29-11.21-1.07-2.58-2.54-6.14-4.96-6.7-1.91-.45-3.98.81-5.17 2.69-1.19 1.89-1.61 4.28-1.6 6.58.03 3.76 1.17 7.45 3.19 10.28-.1-.2.36-1.45.25-1.64z"/><path class="st15" d="M282.33 223.36c.83-5.03 4.14-9.5 8.29-11.21-1.07-2.58-2.54-6.14-4.96-6.7-1.91-.45-3.98.81-5.17 2.69-1.19 1.89-1.61 4.28-1.6 6.58.03 3.76 1.17 7.45 3.19 10.28-.1-.2.36-1.45.25-1.64z"/><path class="st16" d="M247.16 212.01c-2.15.69-4.16 1.74-6.01 3.04 8.27-2.49 20.92-4.72 30.56-2.65.32.07.63-.01.89-.21.01-.01.03-.02.04-.03.89-.66.86-2.21.24-3.09-8.16-.38-17.08.15-25.72 2.94z"/><path class="st18" d="M293.47 287.57h-29.14c-24.46 0-44.28-19.83-44.28-44.29 0-.28.02-.56.02-.84-.49 2.56-.75 5.2-.75 7.9 0 23.28 18.87 42.15 42.15 42.15h27.73c12.73 0 24.14-5.66 31.87-14.58-7.58 6.04-17.17 9.66-27.6 9.66z"/><path class="st12" d="M235.34 299.37c2.81.59 6.26.87 9.43.42 2.16-.3 3.89-1.61 4.56-3.29l3.99-27.23c-2.17-2.3-9.43-4.32-15.81-3.22-3.55.61-8.75 2.08-8.51 4.92.23 2.76.64 9.89 1.76 23.01.37 4.43 1.59 4.76 4.58 5.39zM283.42 299.77c2.55.33 5.66.38 8.48-.15 1.92-.36 3.41-1.51 3.93-2.9l3.43-19.33c-2.06-1.74-8.68-3.01-14.34-1.78-3.15.68-7.75 2.13-7.4 4.42.34 2.22 1.41 13.25 1.53 15.62.18 3.59 1.66 3.76 4.37 4.12z"/></g><g><path class="st19" d="M234.33 199.17c-3.72-9.61 1.05-20.42 10.66-24.14 9.61-3.72 20.42 1.05 24.14 10.66 3.72 9.61-1.05 20.42-10.66 24.14-9.61 3.72-20.42-1.05-24.14-10.66z"/><path class="st19" d="M232.24 199.98c-3.72-9.61 1.05-20.42 10.66-24.14 9.61-3.72 20.42 1.05 24.14 10.66 3.72 9.61-1.05 20.42-10.66 24.14-9.61 3.72-20.42-1.05-24.14-10.66z"/><path class="st31" d="M232.24 199.98c-3.72-9.61 1.05-20.42 10.66-24.14 9.61-3.72 20.42 1.05 24.14 10.66 3.72 9.61-1.05 20.42-10.66 24.14-9.61 3.72-20.42-1.05-24.14-10.66z"/><path class="st19" d="M254.68 206.26c-.48.19-.98.35-1.49.47-6.79 1.8-13.98-1.74-16.57-8.46-2.78-7.18.78-15.28 7.98-18.06 1.06-.41 2.15-.69 3.24-.82 6.22-.83 12.45 2.68 14.83 8.81 2.78 7.18-.79 15.28-7.99 18.06z"/><path class="st32" d="M254.68 206.26c-.48.19-.98.35-1.49.47-6.2.77-12.37-2.72-14.72-8.82-2.8-7.19.78-15.28 7.97-18.07.46-.17.92-.34 1.4-.45 6.22-.83 12.45 2.68 14.83 8.81 2.78 7.18-.79 15.28-7.99 18.06z"/><g class="st13"><path class="st4" d="M242.85 192.68c-1.62-2.68-.39-5.38 3.06-7.06l-.86-2.4 2.16-.84.86 2.4c2.17-.62 4.35-.72 5.92-.38l.06 3.06c-1.62-.34-3.38-.28-4.96.15l1.32 3.69c2.35-.21 5.01-.32 6.49 2.12 1.62 2.68.35 5.41-3.18 7.08l.86 2.4-2.16.84-.88-2.43c-1.62.46-3.27.6-4.68.39l-.19-3.01c1.28.22 2.62.13 3.86-.2l-1.39-3.84c-2.31.25-4.89.36-6.29-1.97zm8.69 1.76l1.13 3.15c1.1-.7 1.42-1.59.97-2.37-.37-.62-1.13-.78-2.1-.78zm-5.5-3.64c.35.58 1.07.76 1.99.72l-1.08-2.99c-1.05.68-1.38 1.5-.91 2.27z"/></g></g><g><path d="M57.45 24.08v33.19h113.84V24.08H57.45zm113.29 32.65H100.6V24.62h70.14v32.11z"/><path class="st4" d="M64.98 35.27h2.14V46h-2.14zM75.04 35.27h2.14v10.72h-2.49l-4.31-7.14v7.14h-2.13V35.27h2.5l4.29 7.16z"/><path class="st35" d="M81.52 39.55c.59 0 1.08-.48 1.08-1.06 0-.59-.48-1.08-1.08-1.08h-1.08v2.14h1.08zm-3.21-4.28h3.21c1.78 0 3.21 1.44 3.21 3.23 0 1.22-.68 2.29-1.68 2.83L85.16 46h-2.35l-1.94-4.29h-.42V46h-2.14V35.27zM87.89 40.88l-2.8-5.61h2.39l1.49 2.97 1.47-2.97h2.39l-2.8 5.61v5.11h-2.14z"/><g><path class="st36" d="M108.16 35.59h5.49v1.87h-3.59v1.82h3.59v1.84h-3.59v2.65h3.59v1.88h-5.49V35.59zM114.78 35.59h2.15l2.11 3.23 2.12-3.23h2.15l-3.19 4.88 3.39 5.18h-2.15l-2.32-3.54-2.31 3.54h-2.17l3.4-5.19-3.18-4.87zM124.96 35.59h2.03c1.1 0 1.89.1 2.38.3s.87.53 1.15.98c.28.45.42 1 .42 1.63 0 .7-.18 1.29-.55 1.75-.37.47-.87.79-1.49.97-.37.1-1.04.16-2.02.16v4.26h-1.92V35.59zm1.91 3.93h.61c.48 0 .81-.03 1-.1a.88.88 0 00.44-.34c.11-.16.16-.35.16-.57 0-.39-.15-.67-.45-.85-.22-.13-.62-.2-1.22-.2h-.54v2.06zM132.81 35.59h5.49v1.87h-3.59v1.82h3.59v1.84h-3.59v2.65h3.59v1.88h-5.49V35.59zM140.1 35.59h1.84l4.3 6.62v-6.62h1.92v10.06h-1.84l-4.3-6.6v6.6h-1.92V35.59zM155.73 36.96l-1.42 1.25c-.5-.69-1.01-1.04-1.52-1.04a.96.96 0 00-.62.2c-.16.13-.24.29-.24.45s.06.33.17.48c.16.2.62.63 1.4 1.29.73.61 1.17 1 1.33 1.16.39.39.66.77.83 1.12.16.36.24.75.24 1.17 0 .83-.29 1.51-.86 2.05-.57.54-1.31.81-2.23.81-.72 0-1.34-.18-1.87-.53-.53-.35-.99-.9-1.37-1.66l1.61-.97c.48.89 1.04 1.33 1.67 1.33.33 0 .61-.1.83-.29.22-.19.34-.41.34-.66 0-.23-.08-.46-.25-.68-.17-.23-.54-.58-1.12-1.05-1.1-.89-1.8-1.58-2.12-2.07-.32-.49-.48-.97-.48-1.45 0-.7.27-1.3.8-1.8s1.19-.75 1.97-.75c.5 0 .98.12 1.43.35.46.25.95.67 1.48 1.29zM157.74 35.59h5.49v1.87h-3.59v1.82h3.59v1.84h-3.59v2.65h3.59v1.88h-5.49V35.59z"/></g></g></svg>